<svg width="609" height="122" viewBox="0 0 609 122" fill="none" xmlns="http://www.w3.org/2000/svg">
<path d="M68.447 78.272L68.231 95.624H70.103C72.791 89.912 75.263 83.816 77.519 77.336C79.775 70.808 80.903 65.84 80.903 62.432C80.903 61.088 80.639 59.792 80.111 58.544C83.759 56.048 87.119 54.8 90.191 54.8C94.991 54.8 97.391 57.512 97.391 62.936C97.391 65.624 96.647 69.032 95.159 73.16C93.719 77.24 91.559 82.376 88.679 88.568C85.799 94.712 84.263 98.024 84.071 98.504L85.079 102.464C80.951 106.688 75.791 108.8 69.599 108.8C63.407 108.8 59.495 107.672 57.863 105.416C53.831 107.672 49.511 108.8 44.903 108.8C40.295 108.8 36.983 108.128 34.967 106.784C32.951 105.44 31.943 103.184 31.943 100.016L32.015 86.768C32.015 75.776 30.671 68.024 27.983 63.512C26.735 61.448 25.199 59.792 23.375 58.544C26.639 56.048 30.383 54.8 34.607 54.8C38.447 54.8 41.303 56.312 43.175 59.336C45.047 62.312 46.271 65.888 46.847 70.064C47.327 73.856 47.567 78.344 47.567 83.528L47.351 95.624H49.223C51.959 89.672 54.263 82.616 56.135 74.456C55.655 69.848 54.599 65.216 52.967 60.56C54.743 59.168 56.399 58.184 57.935 57.608C59.471 56.984 61.511 56.672 64.055 56.672C69.287 56.672 71.903 59.096 71.903 63.944C71.903 66.824 70.751 71.6 68.447 78.272ZM120.473 108.8C113.897 108.8 108.809 107.096 105.209 103.688C101.657 100.28 99.8806 95.672 99.8806 89.864C99.8806 82.136 102.521 75.872 107.801 71.072C113.129 66.224 119.801 63.8 127.817 63.8C132.281 63.8 135.665 64.808 137.969 66.824C140.273 68.792 141.425 71.408 141.425 74.672C141.425 79.136 139.241 82.856 134.873 85.832C130.553 88.76 123.857 90.248 114.785 90.296C114.929 93.368 115.625 95.792 116.873 97.568C118.121 99.296 119.681 100.16 121.553 100.16C123.425 100.16 125.033 99.536 126.377 98.288C127.769 97.04 128.465 95 128.465 92.168C135.473 92.168 138.977 93.824 138.977 97.136C138.977 99.968 137.249 102.632 133.793 105.128C130.337 107.576 125.897 108.8 120.473 108.8ZM126.593 72.224C124.145 72.224 121.889 73.448 119.825 75.896C117.809 78.344 116.345 81.224 115.433 84.536C120.233 84.152 123.833 83.072 126.233 81.296C128.681 79.472 129.905 77.552 129.905 75.536C129.905 74.576 129.593 73.784 128.969 73.16C128.393 72.536 127.601 72.224 126.593 72.224ZM174.705 98.144L173.985 97.784C172.689 101.24 170.817 103.952 168.369 105.92C165.969 107.84 163.281 108.8 160.305 108.8C156.225 108.8 152.961 107.264 150.513 104.192C148.065 101.12 146.841 97.016 146.841 91.88C146.841 83.912 149.505 77.24 154.833 71.864C160.209 66.488 166.881 63.8 174.849 63.8C176.913 63.8 178.809 63.992 180.537 64.376C180.825 65.72 180.993 66.896 181.041 67.904C183.441 66.368 185.913 65.6 188.457 65.6C191.961 65.6 193.713 67.496 193.713 71.288C193.713 72.632 192.945 76.688 191.409 83.456C189.921 90.224 189.177 95.24 189.177 98.504C189.177 101.768 189.921 104.024 191.409 105.272C188.721 107.624 185.913 108.8 182.985 108.8C180.105 108.8 177.993 107.936 176.649 106.208C175.353 104.48 174.705 101.792 174.705 98.144ZM160.377 88.352C160.377 90.704 160.857 92.528 161.817 93.824C162.825 95.072 164.241 95.696 166.065 95.696C167.889 95.696 169.689 95.024 171.465 93.68C173.241 92.336 174.729 90.488 175.929 88.136C176.361 83.288 177.297 77.552 178.737 70.928C173.889 70.928 169.617 72.68 165.921 76.184C162.225 79.688 160.377 83.744 160.377 88.352ZM201.801 81.008C201.465 79.664 201.297 78.416 201.297 77.264C201.297 74.912 201.993 73.136 203.385 71.936C204.777 70.736 206.577 70.136 208.785 70.136C208.785 67.64 208.137 64.928 206.841 62C209.193 60.272 211.329 58.976 213.249 58.112C215.217 57.2 217.281 56.744 219.441 56.744C221.601 56.744 223.089 57.152 223.905 57.968C224.769 58.736 225.201 59.936 225.201 61.568C225.201 63.2 224.865 65.744 224.193 69.2C226.113 68.912 228.057 68.504 230.025 67.976C230.361 68.984 230.529 70.28 230.529 71.864C230.529 73.448 229.905 74.936 228.657 76.328C227.457 77.672 225.681 78.344 223.329 78.344H222.249C220.521 86.168 219.657 92.192 219.657 96.416C219.657 100.64 220.401 103.592 221.889 105.272C219.201 107.624 216.345 108.8 213.321 108.8C210.297 108.8 208.113 107.912 206.769 106.136C205.473 104.312 204.825 101.504 204.825 97.712C204.825 95.408 205.665 89.36 207.345 79.568C205.425 79.904 203.577 80.384 201.801 81.008ZM274.923 63.8C280.731 63.8 283.635 66.704 283.635 72.512C283.635 75.008 282.915 79.232 281.475 85.184C280.083 91.136 279.387 95.624 279.387 98.648C279.387 101.672 279.891 103.88 280.899 105.272C278.355 107.624 275.667 108.8 272.835 108.8C267.315 108.8 264.555 105.824 264.555 99.872C264.555 97.664 265.275 93.92 266.715 88.64C268.155 83.36 268.875 79.928 268.875 78.344C268.875 76.184 268.059 75.104 266.427 75.104C265.083 75.104 263.547 75.704 261.819 76.904C260.091 78.056 258.411 79.64 256.779 81.656C255.195 83.624 253.851 86.144 252.747 89.216C251.643 92.24 251.091 95.336 251.091 98.504C251.091 101.624 251.595 103.88 252.603 105.272C250.059 107.624 247.371 108.8 244.539 108.8C239.019 108.8 236.259 105.824 236.259 99.872C236.259 96.32 237.219 89.12 239.139 78.272C240.771 68.72 241.707 63.368 241.947 62.216L237.915 56.456C243.915 52.952 248.643 51.2 252.099 51.2C254.067 51.2 255.459 51.608 256.275 52.424C257.091 53.192 257.499 54.488 257.499 56.312C257.499 59.768 257.163 63.536 256.491 67.616C255.819 71.696 255.195 74.696 254.619 76.616L255.339 76.976C260.475 68.192 267.003 63.8 274.923 63.8ZM310.738 108.8C304.162 108.8 299.074 107.096 295.474 103.688C291.922 100.28 290.146 95.672 290.146 89.864C290.146 82.136 292.786 75.872 298.066 71.072C303.394 66.224 310.066 63.8 318.082 63.8C322.546 63.8 325.93 64.808 328.234 66.824C330.538 68.792 331.69 71.408 331.69 74.672C331.69 79.136 329.506 82.856 325.138 85.832C320.818 88.76 314.122 90.248 305.05 90.296C305.194 93.368 305.89 95.792 307.138 97.568C308.386 99.296 309.946 100.16 311.818 100.16C313.69 100.16 315.298 99.536 316.642 98.288C318.034 97.04 318.73 95 318.73 92.168C325.738 92.168 329.242 93.824 329.242 97.136C329.242 99.968 327.514 102.632 324.058 105.128C320.602 107.576 316.162 108.8 310.738 108.8ZM316.858 72.224C314.41 72.224 312.154 73.448 310.09 75.896C308.074 78.344 306.61 81.224 305.698 84.536C310.498 84.152 314.098 83.072 316.498 81.296C318.946 79.472 320.17 77.552 320.17 75.536C320.17 74.576 319.858 73.784 319.234 73.16C318.658 72.536 317.866 72.224 316.858 72.224ZM338.187 99.872C338.187 97.952 338.667 94.232 339.627 88.712C340.635 83.192 341.667 78.152 342.723 73.592L338.979 67.832C344.979 65.144 349.179 63.8 351.579 63.8C354.027 63.8 355.251 65.336 355.251 68.408C355.251 70.088 354.459 73.592 352.875 78.92L353.595 79.28C357.051 68.96 361.347 63.8 366.483 63.8C368.835 63.8 370.635 64.52 371.883 65.96C373.131 67.4 373.755 69.008 373.755 70.784C373.755 73.424 372.771 75.68 370.803 77.552C368.835 79.424 365.883 80.36 361.947 80.36C355.995 80.36 353.019 86.48 353.019 98.72C353.019 101.696 353.523 103.88 354.531 105.272C351.555 107.624 348.819 108.8 346.323 108.8C340.899 108.8 338.187 105.824 338.187 99.872ZM439.642 65.384L439.066 82.52C439.066 88.424 439.546 93.392 440.506 97.424C441.514 101.456 443.362 104.24 446.05 105.776C442.738 107.84 439.378 108.872 435.97 108.872C429.97 108.872 426.274 104.024 424.882 94.328H410.194C409.282 97.448 408.826 99.848 408.826 101.528C408.826 103.16 409.018 104.48 409.402 105.488C405.85 107.744 402.682 108.872 399.898 108.872C395.626 108.872 393.49 106.28 393.49 101.096C393.49 98.504 394.282 95.24 395.866 91.304C397.498 87.368 399.634 82.856 402.274 77.768C404.962 72.68 406.666 69.32 407.386 67.688C406.858 65.096 406.258 62.552 405.586 60.056C408.082 58.328 410.482 57.032 412.786 56.168C415.138 55.256 417.658 54.8 420.346 54.8C423.082 54.8 424.978 55.4 426.034 56.6C428.77 55.4 431.026 54.8 432.802 54.8C434.578 54.8 435.898 55.088 436.762 55.664C437.626 56.24 438.25 57.08 438.634 58.184C439.306 60.104 439.642 62.504 439.642 65.384ZM425.17 67.04H422.866C418.546 75.392 415.33 81.968 413.218 86.768H424.378C424.378 81.536 424.642 74.96 425.17 67.04ZM458.327 121.328C455.351 121.328 453.263 120.584 452.063 119.096C450.911 117.656 450.335 115.544 450.335 112.76C450.335 110.024 450.911 104.48 452.063 96.128C453.263 87.776 454.415 80.648 455.519 74.744L451.487 68.984C454.463 67.256 457.031 65.96 459.191 65.096C461.351 64.184 463.487 63.728 465.599 63.728C469.055 63.728 470.783 66.008 470.783 70.568C470.783 71.192 470.687 72.464 470.495 74.384L471.215 74.744C472.607 71.288 474.623 68.6 477.263 66.68C479.903 64.712 482.999 63.728 486.551 63.728C490.151 63.728 493.007 65.36 495.119 68.624C497.231 71.84 498.287 75.848 498.287 80.648C498.287 87.08 496.031 92.936 491.519 98.216C489.311 100.808 486.359 102.92 482.663 104.552C478.967 106.136 474.839 106.928 470.279 106.928C468.887 106.928 467.063 106.808 464.807 106.568C464.663 108.248 464.591 109.808 464.591 111.248C464.591 114.32 465.335 116.504 466.823 117.8C464.135 120.152 461.303 121.328 458.327 121.328ZM467.759 91.52L466.103 99.872C471.911 99.728 476.543 97.832 479.999 94.184C483.503 90.488 485.255 86.456 485.255 82.088C485.255 79.832 484.799 78.032 483.887 76.688C483.023 75.296 481.751 74.6 480.071 74.6C474.119 74.6 470.015 80.24 467.759 91.52ZM513.452 121.328C510.476 121.328 508.388 120.584 507.188 119.096C506.036 117.656 505.46 115.544 505.46 112.76C505.46 110.024 506.036 104.48 507.188 96.128C508.388 87.776 509.54 80.648 510.644 74.744L506.612 68.984C509.588 67.256 512.156 65.96 514.316 65.096C516.476 64.184 518.612 63.728 520.724 63.728C524.18 63.728 525.908 66.008 525.908 70.568C525.908 71.192 525.812 72.464 525.62 74.384L526.34 74.744C527.732 71.288 529.748 68.6 532.388 66.68C535.028 64.712 538.124 63.728 541.676 63.728C545.276 63.728 548.132 65.36 550.244 68.624C552.356 71.84 553.412 75.848 553.412 80.648C553.412 87.08 551.156 92.936 546.644 98.216C544.436 100.808 541.484 102.92 537.788 104.552C534.092 106.136 529.964 106.928 525.404 106.928C524.012 106.928 522.188 106.808 519.932 106.568C519.788 108.248 519.716 109.808 519.716 111.248C519.716 114.32 520.46 116.504 521.948 117.8C519.26 120.152 516.428 121.328 513.452 121.328ZM522.884 91.52L521.228 99.872C527.036 99.728 531.668 97.832 535.124 94.184C538.628 90.488 540.38 86.456 540.38 82.088C540.38 79.832 539.924 78.032 539.012 76.688C538.148 75.296 536.876 74.6 535.196 74.6C529.244 74.6 525.14 80.24 522.884 91.52Z" fill="#F1F0F0"/>
<path d="M561.783 104.716C565.611 102.389 569.111 99.3735 572.091 95.6907C585.987 78.5173 583.33 53.3304 566.157 39.4342C548.983 25.5381 523.796 28.1948 509.9 45.3682C506.92 49.051 504.701 53.1023 503.224 57.3318C517.247 48.8058 535.682 49.5073 549.173 60.4235C562.663 71.3396 567.196 89.2232 561.783 104.716Z" fill="#FAD40B"/>
<path d="M566.782 36.9198L581.195 21.5688L569.114 38.8068L566.782 36.9198Z" fill="#FAD40B"/>
<path d="M574.651 44.7885L592.546 33.691L576.415 47.2149L574.651 44.7885Z" fill="#FAD40B"/>
<path d="M579.566 53.2548L599.724 47.1671L580.642 56.0551L579.566 53.2548Z" fill="#FAD40B"/>
<path d="M582.663 63.5515L603.71 62.8885L582.978 66.535L582.663 63.5515Z" fill="#FAD40B"/>
<path d="M582.6 74.6192L603.101 79.426L582.132 77.5824L582.6 74.6192Z" fill="#FAD40B"/>
<path d="M581.175 82.8138L599.734 92.7629L579.956 85.5549L581.175 82.8138Z" fill="#FAD40B"/>
<path d="M575.881 93.4278L591.232 107.841L573.994 95.7599L575.881 93.4278Z" fill="#FAD40B"/>
<path d="M508.183 45.2635L492.832 30.8501L510.07 42.9313L508.183 45.2635Z" fill="#FAD40B"/>
<path d="M516.052 37.3946L504.954 19.4993L518.478 35.6304L516.052 37.3946Z" fill="#FAD40B"/>
<path d="M525.408 31.38L519.32 11.2222L528.208 30.3039L525.408 31.38Z" fill="#FAD40B"/>
<path d="M535.704 28.2828L535.041 7.23626L538.688 27.9681L535.704 28.2828Z" fill="#FAD40B"/>
<path d="M546.772 28.3457L551.579 7.8447L549.735 28.8139L546.772 28.3457Z" fill="#FAD40B"/>
<path d="M556.066 30.6601L566.015 12.1017L558.807 31.8792L556.066 30.6601Z" fill="#FAD40B"/>
<path d="M561.783 104.716C565.611 102.389 569.111 99.3735 572.091 95.6907C585.987 78.5173 583.33 53.3304 566.157 39.4342C548.983 25.5381 523.796 28.1948 509.9 45.3682C506.92 49.051 504.701 53.1023 503.224 57.3318C517.247 48.8058 535.682 49.5073 549.173 60.4235C562.663 71.3396 567.196 89.2232 561.783 104.716Z" stroke="#BDBDBD"/>
<path d="M566.782 36.9198L581.195 21.5688L569.114 38.8068L566.782 36.9198Z" stroke="#BDBDBD"/>
<path d="M574.651 44.7885L592.546 33.691L576.415 47.2149L574.651 44.7885Z" stroke="#BDBDBD"/>
<path d="M579.566 53.2548L599.724 47.1671L580.642 56.0551L579.566 53.2548Z" stroke="#BDBDBD"/>
<path d="M582.663 63.5515L603.71 62.8885L582.978 66.535L582.663 63.5515Z" stroke="#BDBDBD"/>
<path d="M582.6 74.6192L603.101 79.426L582.132 77.5824L582.6 74.6192Z" stroke="#BDBDBD"/>
<path d="M581.175 82.8138L599.734 92.7629L579.956 85.5549L581.175 82.8138Z" stroke="#BDBDBD"/>
<path d="M575.881 93.4278L591.232 107.841L573.994 95.7599L575.881 93.4278Z" stroke="#BDBDBD"/>
<path d="M508.183 45.2635L492.832 30.8501L510.07 42.9313L508.183 45.2635Z" stroke="#BDBDBD"/>
<path d="M516.052 37.3946L504.954 19.4993L518.478 35.6304L516.052 37.3946Z" stroke="#BDBDBD"/>
<path d="M525.408 31.38L519.32 11.2222L528.208 30.3039L525.408 31.38Z" stroke="#BDBDBD"/>
<path d="M535.704 28.2828L535.041 7.23626L538.688 27.9681L535.704 28.2828Z" stroke="#BDBDBD"/>
<path d="M546.772 28.3457L551.579 7.8447L549.735 28.8139L546.772 28.3457Z" stroke="#BDBDBD"/>
<path d="M556.066 30.6601L566.015 12.1017L558.807 31.8792L556.066 30.6601Z" stroke="#BDBDBD"/>
</svg>
