<svg width="52" height="53" viewBox="0 0 52 53" fill="none" xmlns="http://www.w3.org/2000/svg">
<g clip-path="url(#clip0)">
<path d="M42.4309 19.427C37.9126 19.9927 31.9216 20.304 25.5612 20.304H25.4854C25.0645 20.304 24.7237 20.6518 24.7237 21.0804C24.7237 21.5094 25.0645 21.8568 25.4854 21.8568H25.5612C31.9815 21.8568 38.0387 21.5414 42.6166 20.9684C43.0343 20.9158 43.3311 20.5284 43.2799 20.1031C43.2287 19.6773 42.8471 19.3752 42.4309 19.427Z" fill="#F8F8F8"/>
<path d="M46.8505 18.6737C46.3545 18.7913 45.7991 18.9058 45.1993 19.0129C44.7851 19.0873 44.5082 19.4897 44.5808 19.9122C44.6458 20.2891 44.9676 20.5543 45.3302 20.5543C45.3742 20.5543 45.4183 20.5503 45.4631 20.5422C46.0903 20.4298 46.6731 20.3101 47.196 20.186C47.6058 20.0885 47.8605 19.6708 47.7649 19.2535C47.6697 18.8358 47.2603 18.5766 46.8505 18.6737Z" fill="#F8F8F8"/>
<path d="M16.8427 17.7683C16.8245 18.1965 17.1502 18.5592 17.5703 18.5782C20.1106 18.6918 22.7734 18.7505 25.4862 18.7513H25.5616C31.8494 18.7513 37.7638 18.4452 42.2206 17.8888C48.8666 17.0595 49.7835 16.0283 49.7839 15.0377C49.7843 14.1736 49.1031 13.2714 44.3769 12.4902C44.4788 12.1109 44.5312 11.7179 44.5312 11.3228C44.5316 10.1215 44.0658 8.99211 43.2196 8.14336C42.3766 7.29826 41.257 6.83244 40.066 6.83203C40.0656 6.83203 40.0648 6.83203 40.0644 6.83203C38.6219 6.83203 37.2766 7.54087 36.4459 8.69046C35.9476 8.4527 35.3989 8.32613 34.8427 8.32573C34.8423 8.32573 34.8419 8.32573 34.8415 8.32573C33.0154 8.32573 31.4903 9.6496 31.1666 11.3932C29.9264 11.3544 28.6501 11.3281 27.3612 11.3151C27.3588 11.3151 27.356 11.3151 27.3536 11.3151C26.9367 11.3151 26.5963 11.6576 26.5919 12.0834C26.5879 12.5125 26.9256 12.8634 27.3461 12.8679C28.8759 12.8832 30.3878 12.9172 31.841 12.969C32.0509 12.9754 32.2572 12.8905 32.4064 12.7385C32.5555 12.586 32.6361 12.3734 32.6285 12.1582C32.6277 12.1336 32.6266 12.1085 32.6266 12.0838C32.627 10.8675 33.6204 9.87846 34.8415 9.87846H34.8423C35.3533 9.87887 35.8337 10.0479 36.2312 10.3681C36.4133 10.5145 36.6518 10.5687 36.8775 10.5145C37.1032 10.4603 37.2929 10.3043 37.3921 10.0903C37.8725 9.05398 38.9214 8.38477 40.0644 8.38477H40.0656C40.8543 8.38517 41.595 8.69248 42.1508 9.25009C42.7039 9.80447 43.0081 10.5404 43.0078 11.3224C43.0078 11.8145 42.8828 12.3018 42.6467 12.7308C42.5237 12.954 42.517 13.2249 42.6281 13.4542C42.7392 13.6839 42.9546 13.8428 43.2033 13.8792C46.303 14.33 47.5455 14.787 48.0268 15.0373C47.4543 15.3353 45.8039 15.9244 41.2312 16.4436C36.9374 16.9309 31.3757 17.1986 25.5604 17.1986C25.5362 17.1986 25.5108 17.1986 25.4866 17.1986C22.796 17.1977 20.155 17.1399 17.6374 17.0267C17.2168 17.0085 16.8614 17.3401 16.8427 17.7683Z" fill="#F8F8F8"/>
<path d="M5.2142 17.3106C7.41605 17.7647 10.5355 18.1383 14.2358 18.391C14.2533 18.3922 14.2703 18.3926 14.2878 18.3926C14.6849 18.3926 15.0197 18.0784 15.0467 17.6684C15.0749 17.2406 14.7575 16.8706 14.3378 16.8419C11.0457 16.6171 8.20078 16.2932 6.11081 15.905C4.20136 15.5504 3.33252 15.2184 2.94849 15.0187C3.56342 14.6976 5.42209 14.0405 10.8124 13.4991C11.227 13.4574 11.5321 13.0842 11.4968 12.6613C11.4924 12.6055 11.4901 12.5569 11.4901 12.5125C11.4904 11.5367 12.2883 10.7434 13.269 10.7434H13.2698C14.2013 10.7438 14.9805 11.4676 15.0432 12.3915C15.0717 12.8149 15.4296 13.1352 15.8449 13.1129C18.4324 12.9674 21.1905 12.8832 24.0425 12.8626C24.4631 12.8598 24.8019 12.5096 24.7987 12.0806C24.7959 11.6536 24.4551 11.3099 24.037 11.3099C24.0354 11.3099 24.0334 11.3099 24.0314 11.3099C21.3968 11.3289 18.8402 11.4021 16.4218 11.527C16.0013 10.1704 14.7373 9.19146 13.2702 9.19065C13.2698 9.19065 13.2694 9.19065 13.269 9.19065C11.6138 9.19065 10.2392 10.4223 10.0027 12.0224C7.55609 12.2868 5.58991 12.6059 4.15216 12.9734C2.68863 13.347 1.19217 13.8824 1.19177 15.0187C1.19098 16.0571 2.35657 16.721 5.2142 17.3106Z" fill="#F8F8F8"/>
<path d="M48.9293 30.0021C47.465 29.6342 45.3976 29.3054 42.9181 29.0434C42.9181 29.0285 42.9181 29.0135 42.9181 28.9989C42.9181 26.466 40.8964 24.405 38.4113 24.405C37.0168 24.405 35.7242 25.056 34.878 26.1466C34.4408 25.9319 33.9584 25.8178 33.466 25.8178C31.9263 25.8178 30.6326 26.9116 30.2934 28.377C29.5618 28.3681 28.8271 28.3637 28.1007 28.3637C27.5798 28.3637 27.0466 28.3661 26.5094 28.371C25.9663 27.2606 24.838 26.5259 23.5903 26.5259C23.4415 26.5259 23.2943 26.536 23.1491 26.5558C22.6076 24.3371 20.6386 22.71 18.3158 22.71C16.3881 22.71 14.6845 23.8114 13.8549 25.5227C13.5304 25.4293 13.1928 25.3811 12.8536 25.3811C10.82 25.3811 9.16562 27.0677 9.16562 29.1405C9.16562 29.2949 9.17474 29.4486 9.19299 29.6002C7.89609 29.8295 6.85349 30.0814 6.08621 30.3515C5.57086 30.5331 4.20096 31.0155 4.20096 32.0874C4.20096 33.1363 5.50342 33.6114 5.99377 33.7902C6.8638 34.1072 8.11111 34.4003 9.702 34.6612C12.6076 35.1371 16.6249 35.4933 21.0945 35.6737C21.0345 35.8322 20.985 35.9955 20.9481 36.1642C19.0247 36.1892 16.3266 36.2968 13.3967 36.4662C12.9766 36.4905 12.6552 36.8572 12.6794 37.2854C12.7032 37.7137 13.0659 38.0388 13.4828 38.0165C16.7487 37.8277 19.7178 37.7165 21.6284 37.7112C22.0486 37.71 22.3882 37.3623 22.3882 36.9341C22.3882 35.8471 23.2558 34.9632 24.3222 34.9632C24.6515 34.9632 24.9768 35.0493 25.2629 35.2123C25.4644 35.3267 25.7056 35.3425 25.9195 35.2548C26.1333 35.167 26.2968 34.985 26.3634 34.7602C26.7661 33.4097 27.9678 32.5023 29.3535 32.5023C30.8762 32.5023 32.1707 33.6102 32.4314 35.1371C32.4782 35.4125 32.6662 35.6405 32.9241 35.7347C33.1824 35.8293 33.47 35.7752 33.6779 35.5932C34.0175 35.296 34.4511 35.1322 34.8982 35.1322C35.9329 35.1322 36.7747 35.9903 36.7747 37.0444C36.7747 37.2179 36.7513 37.391 36.7053 37.5592C36.6458 37.7763 36.6819 38.0084 36.8037 38.1965C36.9259 38.3841 37.1219 38.5086 37.3409 38.5377C40.4953 38.9554 41.8132 39.3958 42.3464 39.6493C41.7569 39.9299 40.2065 40.4398 36.2693 40.8927C32.3758 41.3403 27.335 41.587 22.0756 41.587C16.8157 41.587 11.7749 41.3403 7.88141 40.8927C3.89072 40.4338 2.3522 39.9162 1.78052 39.638C2.42163 39.3113 4.07996 38.7751 7.4938 38.4504C8.24442 38.3792 9.14658 38.3052 10.1769 38.2304C10.5962 38.2001 10.9124 37.8289 10.8827 37.4011C10.8525 36.9733 10.4895 36.651 10.0686 36.6817C9.02756 36.7573 8.11389 36.8322 7.35257 36.9041C5.31458 37.0982 3.57928 37.3987 2.33435 37.7739C1.33221 38.076 0 38.5988 0 39.6489C0 40.5886 0.837097 41.5652 6.90982 42.3387C10.966 42.8551 16.352 43.1397 22.0756 43.1397C27.7992 43.1397 33.1852 42.8551 37.2409 42.3387C43.3136 41.5652 44.1507 40.5886 44.1507 39.6489C44.1507 38.4419 42.4948 37.7116 38.2974 37.1031C38.2978 37.0837 38.2978 37.0643 38.2978 37.0444C38.2978 36.5026 38.1748 35.9895 37.9562 35.5321C41.7192 35.3077 44.9394 34.9592 47.3218 34.5176C50.6448 33.9018 52 33.1974 52 32.0874C52 30.9289 50.448 30.383 48.9293 30.0021ZM46.4121 33.1024C43.9107 33.5217 40.5635 33.8476 36.7323 34.0449C36.6946 34.0469 36.6581 34.0526 36.622 34.0599C36.1162 33.7554 35.5274 33.5795 34.8986 33.5795C34.4614 33.5795 34.0314 33.6656 33.6315 33.8298C32.9178 32.1121 31.2555 30.9496 29.3539 30.9496C27.5718 30.9496 25.9948 31.958 25.2129 33.5294C24.9233 33.4505 24.6237 33.4105 24.3222 33.4105C23.5169 33.4105 22.775 33.6931 22.1866 34.1658C22.1585 34.1614 22.1303 34.1585 22.101 34.1573C17.6247 34.0041 13.659 33.6854 10.6335 33.2358C7.61758 32.7874 6.41232 32.3341 5.94775 32.0874C6.39169 31.8517 7.51285 31.4271 10.2459 30.9985C10.4748 30.9625 10.6752 30.8226 10.7902 30.618C10.9057 30.4134 10.9235 30.1667 10.839 29.9472C10.7394 29.6892 10.6887 29.4178 10.6887 29.1405C10.6887 27.9237 11.6599 26.9339 12.8536 26.9339C13.2222 26.9339 13.5868 27.0305 13.9069 27.2129C14.1081 27.3277 14.3493 27.3431 14.5635 27.2553C14.7769 27.1676 14.9404 26.9856 15.0074 26.7608C15.4526 25.2667 16.7824 24.2627 18.3158 24.2627C20.1494 24.2627 21.6653 25.7228 21.7673 27.5869C21.7816 27.8445 21.9204 28.0782 22.1378 28.2104C22.3553 28.3427 22.6234 28.3556 22.8524 28.246C23.084 28.1348 23.3324 28.0786 23.5899 28.0786C24.3627 28.0786 25.0494 28.6071 25.2597 29.3645C25.3529 29.6985 25.6521 29.929 25.9925 29.929H26.0012C26.7101 29.9209 27.4163 29.9164 28.1003 29.9164C29.0473 29.9164 30.0081 29.9241 30.9567 29.9391C31.1622 29.9415 31.361 29.8606 31.5066 29.7122C31.6522 29.5642 31.7331 29.362 31.7303 29.1522C31.7303 29.1485 31.7299 29.1396 31.7296 29.132C31.7339 28.1603 32.5111 27.371 33.4656 27.371C33.8826 27.371 34.2857 27.5242 34.6011 27.8024C34.7764 27.9573 35.0117 28.0224 35.2398 27.9787C35.4679 27.9351 35.6643 27.7879 35.773 27.5788C36.2923 26.5793 37.3032 25.9582 38.4113 25.9582C40.0561 25.9582 41.3947 27.3221 41.3947 28.9989C41.3947 29.1959 41.3756 29.3948 41.3379 29.5897C41.2963 29.8052 41.3463 30.028 41.4748 30.2039C41.6037 30.3798 41.7989 30.4918 42.0135 30.5124C47.1742 31.0118 49.4994 31.6774 50.2603 32.0834C49.8466 32.305 48.8289 32.6972 46.4121 33.1024Z" fill="#F8F8F8"/>
<path d="M8.83553 44.1167C8.09721 44.0439 7.38548 43.9642 6.72096 43.8793C6.30281 43.8263 5.92275 44.128 5.87077 44.5534C5.81841 44.9792 6.11476 45.3669 6.53212 45.4203C7.21053 45.5069 7.93654 45.5881 8.68913 45.6621C8.71373 45.665 8.73872 45.6662 8.76292 45.6662C9.15053 45.6662 9.48219 45.3657 9.52028 44.9642C9.56114 44.5372 9.25407 44.1579 8.83553 44.1167Z" fill="#F8F8F8"/>
<path d="M37.4297 43.8793C33.3129 44.4038 27.8599 44.6925 22.0756 44.6925C18.3777 44.6925 14.7309 44.572 11.5285 44.3439C11.1072 44.3136 10.745 44.6363 10.7156 45.0641C10.6863 45.4919 11.0029 45.8627 11.4222 45.8926C14.6591 46.1235 18.3431 46.2452 22.0756 46.2452C27.9214 46.2452 33.441 45.9521 37.6186 45.4199C38.0359 45.367 38.3323 44.9788 38.2799 44.5534C38.228 44.128 37.8467 43.8272 37.4297 43.8793Z" fill="#F8F8F8"/>
</g>
<defs>
<clipPath id="clip0">
<rect width="52" height="53" fill="white"/>
</clipPath>
</defs>
</svg>
