<svg width="24" height="33" viewBox="0 0 24 33" fill="none" xmlns="http://www.w3.org/2000/svg">
<path d="M12.4238 0.00687805C5.60211 -0.21897 0 5.14631 0 11.7969C0 19.3446 7.37299 24.8222 11.5055 32.6997C11.7154 33.0996 12.3014 33.1002 12.512 32.7002C16.2505 25.6121 22.64 20.8591 23.8242 14.0304C25.0503 6.96414 19.7162 0.248403 12.4238 0.00687805ZM12.0082 17.9761C8.53437 17.9761 5.71821 15.2095 5.71821 11.7969C5.71821 8.38432 8.53444 5.61767 12.0082 5.61767C15.482 5.61767 18.2982 8.38432 18.2982 11.7969C18.2982 15.2095 15.482 17.9761 12.0082 17.9761Z" fill="#fff"/>
</svg>
