<svg width="979" height="117" viewBox="0 0 979 117" fill="none" xmlns="http://www.w3.org/2000/svg">
<rect width="979" height="117" fill="#E5E5E5"/>
<g clip-path="url(#clip0)">
<rect x="-460.5" y="-782.5" width="1439" height="899" fill="url(#paint0_linear)"/>
<rect x="-460.5" y="-469.5" width="1439" height="586" fill="#FBFBFB" stroke="white"/>
<path fill-rule="evenodd" clip-rule="evenodd" d="M-145.5 0C-164.453 0 -180.866 10.8709 -188.845 26.7175C-194.588 24.3226 -200.889 23 -207.5 23C-225.919 23 -241.939 33.2671 -250.151 48.3902C-259.037 38.3383 -272.028 32 -286.5 32C-296.881 32 -306.5 35.2612 -314.388 40.815C-323.216 28.7992 -337.447 21 -353.5 21C-368.306 21 -381.563 27.6349 -390.459 38.0938C-391.465 38.0316 -392.479 38 -393.5 38C-401.38 38 -408.82 39.879 -415.398 43.2134C-424.129 30.4077 -438.832 22 -455.5 22C-465.881 22 -475.5 25.2612 -483.388 30.815C-492.216 18.7992 -506.447 11 -522.5 11C-541.452 11 -557.866 21.8709 -565.845 37.7175C-571.588 35.3226 -577.889 34 -584.5 34C-611.286 34 -633 55.7142 -633 82.5C-633 109.286 -611.286 131 -584.5 131C-577.738 131 -571.3 129.616 -565.452 127.116C-545.159 139.031 -508.212 147 -466 147C-438.99 147 -414.135 143.737 -394.421 138.266C-373.751 149.54 -337.84 157 -297 157C-236.516 157 -186.843 140.638 -181.48 119.754C-160.297 129.625 -126.755 136 -89 136C-53.3583 136 -21.4709 130.319 -0.192017 121.378C8.58429 133.851 23.0905 142 39.5 142C46.2618 142 52.7004 140.616 58.5481 138.116C78.8414 150.031 115.788 158 158 158C219.838 158 270.375 140.898 273.813 119.345L273.858 119.257C282.351 126.576 293.409 131 305.5 131C312.262 131 318.7 129.616 324.548 127.116C344.841 139.031 381.788 147 424 147C463.009 147 497.521 140.194 518.55 129.759C522.069 130.571 525.734 131 529.5 131C536.262 131 542.7 129.616 548.548 127.116C568.841 139.031 605.788 147 648 147C694.694 147 734.945 137.249 753.339 123.193C757.524 124.37 761.938 125 766.5 125C773.262 125 779.7 123.616 785.548 121.116C805.841 133.031 842.788 141 885 141C946.838 141 997.375 123.898 1000.81 102.345C1004.13 95.7802 1006 88.3584 1006 80.5C1006 53.7142 984.286 32 957.5 32C949.62 32 942.18 33.879 935.602 37.2134C926.871 24.4077 912.168 16 895.5 16C885.119 16 875.5 19.2612 867.612 24.815C858.784 12.7992 844.553 5 828.5 5C809.547 5 793.134 15.8709 785.155 31.7175C779.412 29.3226 773.111 28 766.5 28C754.24 28 743.042 32.5493 734.502 40.0519C730.069 38.7173 725.368 38 720.5 38C712.62 38 705.18 39.879 698.602 43.2134C689.871 30.4077 675.168 22 658.5 22C648.119 22 638.5 25.2612 630.612 30.815C621.784 18.7992 607.553 11 591.5 11C572.547 11 556.134 21.8709 548.155 37.7175C542.412 35.3226 536.111 34 529.5 34C521.587 34 514.116 35.8953 507.517 39.2567C503.977 38.4346 500.289 38 496.5 38C488.62 38 481.18 39.879 474.602 43.2134C465.871 30.4077 451.168 22 434.5 22C424.119 22 414.5 25.2612 406.612 30.815C397.784 18.7992 383.553 11 367.5 11C348.547 11 332.134 21.8709 324.155 37.7175C318.412 35.3226 312.111 34 305.5 34C286.537 34 270.117 44.8825 262.142 60.7427C253.649 53.4245 242.591 49 230.5 49C222.62 49 215.18 50.879 208.602 54.2134C199.871 41.4077 185.168 33 168.5 33C158.119 33 148.5 36.2612 140.612 41.815C131.784 29.7992 117.553 22 101.5 22C82.5475 22 66.134 32.8709 58.1549 48.7175C52.4123 46.3226 46.1106 45 39.5 45C33.818 45 28.3642 45.9771 23.2975 47.7724C14.5322 35.2151 -0.0245361 27 -16.5 27C-24.3795 27 -31.8201 28.879 -38.3983 32.2134C-47.1285 19.4077 -61.8324 11 -78.5 11C-88.8806 11 -98.4996 14.2612 -106.388 19.815C-115.216 7.79915 -129.447 0 -145.5 0Z" fill="#F8F5F5"/>
<path fill-rule="evenodd" clip-rule="evenodd" d="M0.5 28C-18.4525 28 -34.866 38.8709 -42.8451 54.7175C-48.5877 52.3226 -54.8894 51 -61.5 51C-79.9186 51 -95.9391 61.267 -104.151 76.3902C-113.037 66.3383 -126.028 60 -140.5 60C-150.881 60 -160.5 63.2612 -168.388 68.8151C-177.216 56.7991 -191.447 49 -207.5 49C-222.306 49 -235.563 55.6349 -244.459 66.0938C-245.465 66.0316 -246.479 66 -247.5 66C-255.38 66 -262.82 67.879 -269.398 71.2134C-278.129 58.4077 -292.832 50 -309.5 50C-319.881 50 -329.5 53.2612 -337.388 58.8151C-346.216 46.7991 -360.447 39 -376.5 39C-395.452 39 -411.866 49.8709 -419.845 65.7175C-425.588 63.3226 -431.889 62 -438.5 62C-465.286 62 -487 83.7142 -487 110.5C-487 137.286 -465.286 159 -438.5 159C-431.738 159 -425.3 157.616 -419.452 155.116C-399.159 167.031 -362.212 175 -320 175C-292.99 175 -268.135 171.737 -248.421 166.266C-227.751 177.54 -191.84 185 -151 185C-90.5155 185 -40.843 168.638 -35.4797 147.754C-14.2973 157.625 19.245 164 57 164C92.6417 164 124.529 158.318 145.808 149.378C154.584 161.851 169.09 170 185.5 170C192.262 170 198.7 168.616 204.548 166.116C224.841 178.031 261.788 186 304 186C365.838 186 416.375 168.898 419.813 147.345L419.858 147.257C428.351 154.576 439.409 159 451.5 159C458.262 159 464.7 157.616 470.548 155.116C490.841 167.031 527.788 175 570 175C609.009 175 643.521 168.194 664.55 157.759C668.069 158.571 671.734 159 675.5 159C682.262 159 688.7 157.616 694.548 155.116C714.841 167.031 751.788 175 794 175C840.694 175 880.945 165.249 899.339 151.193C903.524 152.37 907.938 153 912.5 153C919.262 153 925.7 151.616 931.548 149.116C951.841 161.031 988.788 169 1031 169C1092.84 169 1143.37 151.898 1146.81 130.345C1150.13 123.78 1152 116.358 1152 108.5C1152 81.7142 1130.29 60 1103.5 60C1095.62 60 1088.18 61.879 1081.6 65.2134C1072.87 52.4077 1058.17 44 1041.5 44C1031.12 44 1021.5 47.2612 1013.61 52.8151C1004.78 40.7991 990.553 33 974.5 33C955.547 33 939.134 43.8709 931.155 59.7175C925.412 57.3226 919.111 56 912.5 56C900.24 56 889.042 60.5493 880.502 68.0519C876.069 66.7173 871.368 66 866.5 66C858.62 66 851.18 67.879 844.602 71.2134C835.871 58.4077 821.168 50 804.5 50C794.119 50 784.5 53.2612 776.612 58.8151C767.784 46.7991 753.553 39 737.5 39C718.547 39 702.134 49.8709 694.155 65.7175C688.412 63.3226 682.111 62 675.5 62C667.587 62 660.116 63.8953 653.517 67.2567C649.977 66.4346 646.289 66 642.5 66C634.62 66 627.18 67.879 620.602 71.2134C611.871 58.4077 597.168 50 580.5 50C570.119 50 560.5 53.2612 552.612 58.8151C543.784 46.7991 529.553 39 513.5 39C494.547 39 478.134 49.8709 470.155 65.7175C464.412 63.3226 458.111 62 451.5 62C432.537 62 416.117 72.8825 408.142 88.7427C399.649 81.4245 388.591 77 376.5 77C368.62 77 361.18 78.879 354.602 82.2134C345.871 69.4077 331.168 61 314.5 61C304.119 61 294.5 64.2612 286.612 69.8151C277.784 57.7991 263.553 50 247.5 50C228.547 50 212.134 60.8709 204.155 76.7175C198.412 74.3226 192.111 73 185.5 73C179.818 73 174.364 73.9771 169.297 75.7724C160.532 63.215 145.975 55 129.5 55C121.62 55 114.18 56.879 107.602 60.2134C98.8715 47.4077 84.1676 39 67.5 39C57.1194 39 47.5004 42.2612 39.6119 47.8151C30.7844 35.7991 16.553 28 0.5 28Z" fill="#194964"/>
<path fill-rule="evenodd" clip-rule="evenodd" d="M0.5 39C-18.4525 39 -34.866 49.8709 -42.8451 65.7175C-48.5877 63.3226 -54.8894 62 -61.5 62C-79.9185 62 -95.9391 72.2671 -104.151 87.3902C-113.037 77.3383 -126.028 71 -140.5 71C-150.881 71 -160.5 74.2612 -168.388 79.815C-177.216 67.7992 -191.447 60 -207.5 60C-222.306 60 -235.563 66.6349 -244.459 77.0938C-245.465 77.0316 -246.479 77 -247.5 77C-255.38 77 -262.82 78.879 -269.398 82.2134C-278.129 69.4077 -292.832 61 -309.5 61C-319.881 61 -329.5 64.2612 -337.388 69.815C-346.216 57.7992 -360.447 50 -376.5 50C-395.452 50 -411.866 60.8709 -419.845 76.7175C-425.588 74.3226 -431.889 73 -438.5 73C-465.286 73 -487 94.7142 -487 121.5C-487 148.286 -465.286 170 -438.5 170C-431.738 170 -425.3 168.616 -419.452 166.116C-399.159 178.031 -362.212 186 -320 186C-292.99 186 -268.135 182.737 -248.421 177.266C-227.751 188.54 -191.84 196 -151 196C-90.5155 196 -40.843 179.638 -35.4797 158.754C-14.2973 168.625 19.245 175 57 175C92.6417 175 124.529 169.319 145.808 160.378C154.584 172.851 169.09 181 185.5 181C192.262 181 198.7 179.616 204.548 177.116C224.841 189.031 261.788 197 304 197C365.838 197 416.375 179.898 419.813 158.345L419.858 158.257C428.351 165.576 439.409 170 451.5 170C458.262 170 464.7 168.616 470.548 166.116C490.841 178.031 527.788 186 570 186C609.009 186 643.521 179.194 664.55 168.759C668.069 169.571 671.734 170 675.5 170C682.262 170 688.7 168.616 694.548 166.116C714.841 178.031 751.788 186 794 186C840.694 186 880.945 176.249 899.339 162.193C903.524 163.37 907.938 164 912.5 164C919.262 164 925.7 162.616 931.548 160.116C951.841 172.031 988.788 180 1031 180C1092.84 180 1143.37 162.898 1146.81 141.345C1150.13 134.78 1152 127.358 1152 119.5C1152 92.7142 1130.29 71 1103.5 71C1095.62 71 1088.18 72.879 1081.6 76.2134C1072.87 63.4077 1058.17 55 1041.5 55C1031.12 55 1021.5 58.2612 1013.61 63.815C1004.78 51.7992 990.553 44 974.5 44C955.547 44 939.134 54.8709 931.155 70.7175C925.412 68.3226 919.111 67 912.5 67C900.24 67 889.042 71.5493 880.502 79.0519C876.069 77.7173 871.368 77 866.5 77C858.62 77 851.18 78.879 844.602 82.2134C835.871 69.4077 821.168 61 804.5 61C794.119 61 784.5 64.2612 776.612 69.815C767.784 57.7992 753.553 50 737.5 50C718.547 50 702.134 60.8709 694.155 76.7175C688.412 74.3226 682.111 73 675.5 73C667.587 73 660.116 74.8953 653.517 78.2567C649.977 77.4346 646.289 77 642.5 77C634.62 77 627.18 78.879 620.602 82.2134C611.871 69.4077 597.168 61 580.5 61C570.119 61 560.5 64.2612 552.612 69.815C543.784 57.7992 529.553 50 513.5 50C494.547 50 478.134 60.8709 470.155 76.7175C464.412 74.3226 458.111 73 451.5 73C432.537 73 416.117 83.8825 408.142 99.7427C399.649 92.4245 388.591 88 376.5 88C368.62 88 361.18 89.879 354.602 93.2134C345.871 80.4077 331.168 72 314.5 72C304.119 72 294.5 75.2612 286.612 80.815C277.784 68.7992 263.553 61 247.5 61C228.547 61 212.134 71.8709 204.155 87.7175C198.412 85.3226 192.111 84 185.5 84C179.818 84 174.364 84.9771 169.297 86.7724C160.532 74.2151 145.975 66 129.5 66C121.62 66 114.18 67.879 107.602 71.2134C98.8715 58.4077 84.1676 50 67.5 50C57.1194 50 47.5004 53.2612 39.6119 58.815C30.7844 46.7992 16.553 39 0.5 39Z" fill="#153B51"/>
</g>
<rect x="-460.5" y="-782.5" width="1439" height="899" stroke="white"/>
<defs>
<linearGradient id="paint0_linear" x1="439.5" y1="-1148.5" x2="227" y2="-198" gradientUnits="userSpaceOnUse">
<stop stop-color="#194964"/>
<stop offset="0.536275" stop-color="#0D2533"/>
<stop offset="1" stop-color="#194964"/>
</linearGradient>
<clipPath id="clip0">
</clipPath>
</defs>
</svg>
