<svg width="49" height="49" viewBox="0 0 49 49" fill="none" xmlns="http://www.w3.org/2000/svg">
<path d="M44.132 28.1112C42.9772 28.4034 41.7931 28.5512 40.6124 28.5512C34.1522 28.5512 28.4587 24.1923 26.7663 17.9508C25.4491 13.0863 26.7309 7.99264 30.1969 4.32347L31.6594 2.77542L29.5314 2.86618C28.2366 2.92063 26.9522 3.11943 25.7127 3.45566C22.3071 4.37879 19.3381 6.28295 17.0554 8.96676C16.0052 7.80421 14.5202 7.12656 12.9212 7.12656C10.5304 7.12656 8.41272 8.66856 7.64172 10.8813H7.54837C4.93112 10.8813 2.80136 13.0111 2.80136 15.6292C2.80136 18.2473 4.93112 20.377 7.54837 20.377H12.8719C12.8823 21.8767 13.0724 23.366 13.4657 24.8138C13.6187 25.3799 13.8305 25.9685 14.0794 26.5926C12.0032 28.221 10.6618 30.7449 10.6618 33.5809C10.6618 33.8946 10.6808 34.2162 10.7205 34.555C9.25633 35.8204 8.42655 37.6217 8.42655 39.5725C8.42655 43.24 11.4112 46.2237 15.0795 46.2237H33.8652C37.5335 46.2237 40.5181 43.24 40.5181 39.5725C40.5181 37.9553 39.952 36.4738 38.9977 35.3225C41.4741 33.8886 43.5615 31.8608 45.0784 29.4035L46.1986 27.5892L44.132 28.1112ZM4.53006 15.63C4.53006 13.9653 5.88363 12.6109 7.54837 12.6109H8.99875L9.14223 11.9237C9.51477 10.1457 11.1043 8.85612 12.9212 8.85612C14.1287 8.85612 15.242 9.41622 15.9706 10.3635L15.471 11.0568H16.4365H17.2222C19.3156 11.0568 21.0193 12.7604 21.0193 14.8547C21.0193 16.8202 19.5456 18.4435 17.5817 18.6319C17.4849 18.6432 17.3838 18.6475 17.2827 18.6483C17.2619 18.6483 17.2446 18.6492 17.2222 18.6492H12.9151H7.54837C5.8845 18.6492 4.53006 17.2948 4.53006 15.63V15.63ZM33.8652 44.4959H15.0803C12.3645 44.4959 10.1561 42.2875 10.1561 39.5734C10.1561 38.0011 10.8874 36.5585 12.1614 35.6173L12.5875 35.3018L12.4994 34.7788C12.4259 34.3441 12.3905 33.9525 12.3905 33.5826C12.3905 31.0544 13.7112 28.8338 15.6957 27.5607C15.9265 27.4137 16.1633 27.2815 16.4062 27.1622C16.4728 27.1293 16.5385 27.0965 16.6068 27.0654C16.8868 26.9392 17.1729 26.8268 17.4659 26.7369C17.5005 26.7266 17.5368 26.7196 17.5714 26.7101C17.8359 26.6341 18.1047 26.5762 18.3769 26.5312C18.4556 26.5174 18.5343 26.5053 18.6138 26.4949C18.9224 26.4543 19.2335 26.4266 19.5481 26.4266C22.0841 26.4266 24.4542 27.794 25.7343 29.9964L26.1959 30.7916L26.9617 30.2808C27.6532 29.8183 28.4596 29.5746 29.2946 29.5746C31.6171 29.5746 33.5065 31.4649 33.5057 33.8134V34.606L34.2948 34.6743C34.5835 34.6993 34.8618 34.7564 35.1341 34.8298C35.2162 34.8515 35.2957 34.8826 35.3761 34.9085C35.5671 34.9707 35.7538 35.0425 35.9336 35.1272C36.0157 35.1661 36.0961 35.2067 36.1756 35.2499C36.3554 35.3467 36.5283 35.4556 36.6943 35.5732C36.7548 35.6164 36.8179 35.657 36.8766 35.702C38.0383 36.6104 38.7886 38.0193 38.7886 39.5743C38.7894 42.2875 36.5802 44.4959 33.8652 44.4959V44.4959ZM37.6476 34.0951C36.9242 33.599 36.0953 33.2368 35.192 33.0571C35.0598 31.9749 34.6328 30.9843 33.9975 30.1606C33.9862 30.1468 33.9785 30.1321 33.9672 30.1183C33.8903 30.0215 33.8073 29.9298 33.7261 29.8382C33.6915 29.7985 33.6595 29.7561 33.6232 29.7181C33.5705 29.6628 33.5126 29.6109 33.4581 29.5564C33.3881 29.4873 33.3198 29.4156 33.2455 29.3499C33.2308 29.3369 33.2161 29.3265 33.2023 29.3144C32.554 28.7474 31.7839 28.317 30.9351 28.0724C30.8582 28.0507 30.7786 28.036 30.7017 28.0179C30.6032 27.9937 30.5046 27.9652 30.4044 27.947C30.3421 27.9349 30.2773 27.9297 30.2134 27.9202C29.9134 27.8727 29.6092 27.8433 29.2954 27.8433C28.4129 27.8433 27.552 28.0369 26.7646 28.4086C25.1059 26.099 22.4126 24.6953 19.5481 24.6953C19.2162 24.6953 18.8895 24.7169 18.5671 24.7524C18.4686 24.7628 18.3718 24.7826 18.275 24.7973C18.0502 24.8302 17.8264 24.8665 17.6068 24.9157C17.4936 24.9408 17.3829 24.9719 17.2706 25.0022C17.0683 25.0558 16.8678 25.1145 16.6716 25.182C16.5584 25.2209 16.4469 25.2623 16.3354 25.3056C16.1383 25.3825 15.9464 25.4672 15.7571 25.5562C15.6897 25.5882 15.6197 25.6107 15.5531 25.6453C15.382 25.1949 15.2454 24.7749 15.133 24.3634C14.7813 23.0617 14.5989 21.7246 14.5885 20.3779H17.2576C17.4279 20.3779 17.5999 20.3675 17.7555 20.352C20.6009 20.0797 22.7471 17.7148 22.7471 14.8547C22.7471 14.5747 22.7194 14.3015 22.6788 14.0327C22.6719 13.9826 22.665 13.9325 22.6563 13.8832C22.6105 13.6256 22.5474 13.3741 22.4662 13.1295C22.4524 13.088 22.4359 13.0474 22.4212 13.0059C22.2371 12.489 21.9787 12.0084 21.658 11.5745C21.6451 11.5572 21.633 11.5399 21.62 11.5226C20.9225 10.6038 19.9457 9.90977 18.8152 9.56835C20.8049 7.4213 23.3184 5.89659 26.163 5.12559C26.6185 5.00112 27.0818 4.89913 27.5494 4.81788C24.7316 8.72647 23.812 13.6628 25.0964 18.4046C26.9919 25.3972 33.3717 30.2808 40.6098 30.2808C41.2096 30.2808 41.8112 30.2462 42.4085 30.1788C41.099 31.7865 39.4835 33.1167 37.6476 34.0951V34.0951Z" fill="#153B51"/>
</svg>
