<svg width="49" height="49" viewBox="0 0 49 49" fill="none" xmlns="http://www.w3.org/2000/svg">
<path d="M44.6765 29.2289C45.7198 27.7413 46.2903 25.9573 46.2903 24.1301C46.2903 21.5068 45.1035 18.9976 43.093 17.3173C43.1605 16.7978 43.1942 16.3077 43.1942 15.8297C43.1942 9.22522 37.8205 3.85242 31.2151 3.85242C27.2599 3.85242 23.5449 5.83869 21.3252 9.08865C20.2111 8.51299 18.9768 8.21306 17.7097 8.21306C13.6101 8.21306 10.2296 11.3532 9.84754 15.3846C5.60531 16.1098 2.49365 19.7461 2.49365 24.1309C2.49365 28.3299 5.45924 31.8954 9.4508 32.7848C8.88725 33.9257 8.56225 35.2058 8.56225 36.5629C8.56225 41.2969 12.4138 45.1493 17.1478 45.1493H36.4496C36.7599 45.1493 37.0677 45.1312 37.3581 45.0983C42.5727 44.5987 46.5064 40.2649 46.5064 35.02C46.5064 32.8652 45.8261 30.872 44.6765 29.2289V29.2289ZM36.2215 24.889C34.2965 22.1395 31.1944 20.5128 27.8277 20.5128C23.2337 20.5128 19.1903 23.6115 17.9577 27.9764C17.0277 27.9669 15.3154 28.075 13.4441 28.9817C12.0188 29.6723 11.0455 30.5617 10.4664 31.1832C10.4578 31.1944 10.4465 31.2048 10.4388 31.2143C6.91826 30.7519 4.22322 27.7249 4.22322 24.1301C4.22322 20.3935 7.02976 17.332 10.7517 17.0096L11.5399 16.9058V16.1132C11.5399 12.7094 14.3076 9.9409 17.7105 9.9409C18.9319 9.9409 20.1143 10.2987 21.1299 10.9755L21.8949 11.4855L22.3564 10.6912C24.1897 7.53887 27.584 5.58025 31.216 5.58025C36.868 5.58025 41.4663 10.1777 41.4663 15.8289C41.4663 16.363 41.4153 16.9231 41.3107 17.5411L41.2226 18.0649L41.6496 18.3804C43.5001 19.7478 44.5616 21.8439 44.5616 24.1301C44.5616 25.4439 44.1968 26.73 43.5218 27.8442C42.9115 27.2244 41.7498 26.2062 39.9952 25.5355C38.4351 24.9408 37.059 24.8682 36.2215 24.889V24.889ZM42.9003 29.7371C44.0715 31.1806 44.7777 33.019 44.7777 35.0192C44.7777 39.3703 41.5156 42.9625 37.1809 43.38C36.9415 43.4051 36.696 43.4206 36.4496 43.4206H17.147C13.3663 43.4206 10.2901 40.3444 10.2901 36.5629C10.2901 35.1531 10.7188 33.8419 11.4509 32.7511C11.7828 32.2429 12.5063 31.2843 13.7829 30.5669C15.2005 29.77 16.535 29.7008 17.147 29.7069H19.3364L19.4799 29.018C20.2993 25.093 23.8103 22.2432 27.8277 22.2432C30.7605 22.2432 33.4529 23.729 35.0295 26.2175L35.2845 26.6194C36.1203 26.5684 37.7125 26.5831 39.5086 27.3325C41.239 28.0551 42.3445 29.12 42.9003 29.7371V29.7371Z" fill="#153B51"/>
</svg>
