<svg width="49" height="49" viewBox="0 0 49 49" fill="none" xmlns="http://www.w3.org/2000/svg">
<path d="M43.2002 17.8531C43.2677 17.3371 43.3014 16.847 43.3014 16.3656C43.3014 9.76107 37.9277 4.38828 31.3223 4.38828C27.3671 4.38828 23.653 6.37455 21.4333 9.62537C20.3183 9.05058 19.084 8.74892 17.8169 8.74892C13.7173 8.74892 10.3368 11.89 9.95474 15.9213C5.71337 16.6474 2.60172 20.2819 2.60172 24.6659C2.60172 29.5642 6.58723 33.5488 11.4864 33.5488H37.5145C42.4137 33.5488 46.3975 29.5642 46.3975 24.6659C46.3983 22.002 45.2401 19.5472 43.2002 17.8531V17.8531ZM37.5145 31.8201H11.4872C7.54147 31.8201 4.33128 28.6108 4.33128 24.6659C4.33128 20.9916 7.19833 17.8644 10.8606 17.5463L11.648 17.4426V16.6499C11.648 13.2461 14.4156 10.4776 17.8186 10.4776C19.0399 10.4776 20.2224 10.8355 21.2388 11.5131L22.0038 12.0231L22.4653 11.2279C24.2986 8.07559 27.6921 6.11698 31.3241 6.11698C36.976 6.11698 41.5744 10.7145 41.5744 16.3656C41.5744 16.9049 41.5234 17.4642 41.4205 18.0761L41.3306 18.6008L41.7576 18.9163C43.6082 20.2828 44.6696 22.378 44.6696 24.6642C44.6696 28.6117 41.4603 31.8201 37.5145 31.8201V31.8201ZM14.3638 41.6227L14.3569 43.7499C14.3551 44.227 13.9688 44.6117 13.4925 44.6117C13.4917 44.6117 13.4908 44.6117 13.4899 44.6117C13.0119 44.6099 12.6264 44.2218 12.6282 43.7447L12.6351 41.6176C12.6368 41.1404 13.0232 40.7558 13.4994 40.7558H13.502C13.9792 40.7575 14.3655 41.1465 14.3638 41.6227ZM14.3802 36.4366L14.3716 39.0297C14.3698 39.5068 13.9835 39.8915 13.5072 39.8915C13.5064 39.8915 13.5055 39.8915 13.5046 39.8915C13.0266 39.8897 12.6411 39.5016 12.6429 39.0245L12.6515 36.4315C12.6532 35.9535 13.0439 35.5662 13.5185 35.5697C13.9964 35.5714 14.3819 35.9604 14.3802 36.4366ZM20.1895 36.4358L20.1878 37.3001C20.1869 37.7772 19.8005 38.1628 19.3234 38.1628C19.3226 38.1628 19.3226 38.1628 19.3217 38.1628C18.8437 38.1619 18.4582 37.7747 18.4591 37.2967L18.4608 36.4323C18.4617 35.9552 18.848 35.5697 19.3252 35.5697H19.3269C19.8049 35.5706 20.1904 35.9587 20.1895 36.4358ZM20.1757 40.6797L20.1739 41.5441C20.1731 42.0212 19.7867 42.4067 19.3096 42.4067C19.3087 42.4067 19.3087 42.4067 19.3079 42.4067C18.8299 42.4058 18.4444 42.0186 18.4452 41.5406L18.447 40.6763C18.4478 40.1992 18.8342 39.8137 19.3113 39.8137H19.3131C19.791 39.8145 20.1765 40.2026 20.1757 40.6797ZM25.9893 41.6227L25.9824 43.7499C25.9807 44.227 25.5943 44.6117 25.118 44.6117H25.1163C24.6383 44.6099 24.252 44.2218 24.2537 43.7447L24.2606 41.6176C24.2623 41.1404 24.6487 40.7558 25.1249 40.7558H25.1284C25.6064 40.7575 25.991 41.1465 25.9893 41.6227ZM26.0066 36.4366L25.9979 39.0297C25.9962 39.5068 25.6098 39.8915 25.1336 39.8915H25.1319C24.6539 39.8897 24.2675 39.5016 24.2692 39.0245L24.2779 36.4315C24.2796 35.9543 24.666 35.5697 25.1422 35.5697H25.1457C25.6237 35.5714 26.0083 35.9604 26.0066 36.4366ZM31.8176 36.4375L31.8141 37.3019C31.8124 37.7781 31.4261 38.1628 30.9498 38.1628C30.9498 38.1628 30.9481 38.1628 30.9463 38.1628C30.4684 38.161 30.0837 37.7729 30.0854 37.2949L30.0889 36.4306C30.0906 35.9543 30.477 35.5697 30.9533 35.5697H30.9567C31.4338 35.5714 31.8193 35.9604 31.8176 36.4375ZM31.8038 40.6815L31.8003 41.5458C31.7986 42.0221 31.4122 42.4067 30.936 42.4067C30.936 42.4067 30.9342 42.4067 30.9325 42.4067C30.4545 42.405 30.0699 42.0169 30.0716 41.5389L30.0751 40.6746C30.0768 40.1983 30.4632 39.8137 30.9394 39.8137H30.9429C31.4209 39.8154 31.8055 40.2043 31.8038 40.6815ZM37.6174 41.6227L37.6105 43.7499C37.6088 44.227 37.2224 44.6117 36.7461 44.6117H36.7444C36.2664 44.6099 35.8801 44.2218 35.8818 43.7447L35.8887 41.6176C35.8904 41.1404 36.2768 40.7558 36.753 40.7558H36.7565C37.2345 40.7575 37.6191 41.1465 37.6174 41.6227ZM37.633 36.4366L37.626 39.0297C37.6243 39.5059 37.2379 39.8915 36.7617 39.8915C36.76 39.8915 36.76 39.8915 36.7582 39.8915C36.2802 39.8897 35.8956 39.5025 35.8973 39.0245L35.9043 36.4315C35.906 35.9543 36.2923 35.5697 36.7686 35.5697H36.7721C37.25 35.5714 37.6347 35.9595 37.633 36.4366Z" fill="#153B51"/>
</svg>
