<svg width="49" height="49" viewBox="0 0 49 49" fill="none" xmlns="http://www.w3.org/2000/svg">
<path d="M45.6037 13.6373C44.5502 12.8773 43.3341 12.4044 42.0548 12.2526C41.3191 5.33283 35.4449 0 28.4145 0C26.201 0 24.0854 0.513283 22.1268 1.52527C21.7747 1.70733 21.6367 2.14024 21.8188 2.49239C22.0009 2.84455 22.4341 2.9825 22.7859 2.80044C24.5389 1.895 26.4324 1.43555 28.4145 1.43555C34.8976 1.43555 40.2824 6.49959 40.6738 12.9644C40.6962 13.3338 40.9957 13.6257 41.3654 13.6384C42.5924 13.6807 43.7673 14.0829 44.7636 14.8015C44.8904 14.8931 45.0373 14.9372 45.1827 14.9372C45.4055 14.9372 45.6253 14.8336 45.7655 14.6392C45.9977 14.3181 45.9248 13.8695 45.6037 13.6373Z" fill="#153B51"/>
<path d="M47.8785 16.2407C47.6923 15.8912 47.2571 15.7585 46.9076 15.945C46.5577 16.1312 46.425 16.566 46.6115 16.9159C47.0837 17.8026 47.3334 18.8057 47.3334 19.8173C47.3334 20.9111 47.0426 21.9878 46.4919 22.9302C46.2919 23.2727 46.4074 23.7123 46.7495 23.9119C46.8635 23.9785 46.988 24.0103 47.111 24.0103C47.3577 24.0103 47.5981 23.8828 47.7315 23.6544C48.4101 22.4925 48.7689 21.1653 48.7689 19.8173C48.7689 18.5713 48.4609 17.3346 47.8785 16.2407Z" fill="#153B51"/>
<path d="M44.5689 24.9696C43.5539 25.6447 42.3714 26.0014 41.1494 26.0014H27.8156C29.49 24.7221 30.573 22.7056 30.573 20.4405C30.573 18.5866 29.8553 16.84 28.5517 15.5219C27.364 14.3211 25.8148 13.6022 24.1471 13.468C23.4174 11.7692 22.2375 10.3143 20.7137 9.23872C19.7758 8.57702 18.7451 8.08879 17.6595 7.78411C18.3428 6.54595 19.2289 5.44275 20.3018 4.49768C20.599 4.23562 20.6278 3.78215 20.3657 3.48457C20.104 3.18699 19.6502 3.15858 19.353 3.42027C18.0408 4.57581 16.9783 5.94369 16.1895 7.4899C15.7802 7.43905 15.366 7.41251 14.948 7.41251C9.87125 7.41251 5.62069 11.2219 5.01133 16.194C2.26211 16.5944 0.191406 18.9384 0.191406 21.7848C0.191406 24.9015 2.72679 27.4369 5.8435 27.4369H41.1494C42.6556 27.4369 44.1128 26.9973 45.364 26.1647C45.6941 25.9453 45.7839 25.4997 45.564 25.1696C45.3446 24.8398 44.899 24.7501 44.5689 24.9696ZM5.8435 26.0014C3.51859 26.0014 1.62695 24.1101 1.62695 21.7848C1.62695 19.501 3.41428 17.6505 5.69583 17.572C6.06593 17.5593 6.36538 17.2673 6.38781 16.898C6.66109 12.3842 10.4212 8.84806 14.9476 8.84806C18.5047 8.84806 21.7332 11.0855 22.9811 14.4153C23.085 14.6927 23.3486 14.8777 23.6447 14.8811C26.6735 14.9177 29.1375 17.4116 29.1375 20.4405C29.1375 23.5067 26.6429 26.0014 23.5762 26.0014H5.8435Z" fill="#153B51"/>
<path d="M37.9489 12.1352C38.0046 12.1352 38.0611 12.1289 38.1171 12.1154C38.5026 12.0227 38.7403 11.635 38.6476 11.2496C38.5078 10.6683 38.3164 10.0948 38.079 9.54564C37.9212 9.18189 37.4988 9.01441 37.1351 9.17217C36.7713 9.32956 36.6038 9.752 36.7612 10.1157C36.9665 10.5894 37.1313 11.0836 37.2517 11.5853C37.3306 11.9143 37.6248 12.1352 37.9489 12.1352Z" fill="#153B51"/>
<path d="M34.975 7.43121C35.116 7.57812 35.3044 7.65215 35.4928 7.65215C35.6715 7.65215 35.8506 7.5856 35.9896 7.45214C36.2756 7.17774 36.285 6.72353 36.0106 6.43754C34.003 4.34553 31.3054 3.19373 28.4145 3.19373C28.0182 3.19373 27.6967 3.51523 27.6967 3.9115C27.6967 4.30777 28.0182 4.62927 28.4145 4.62927C30.9106 4.62927 33.2404 5.62444 34.975 7.43121Z" fill="#153B51"/>
<path d="M11.6765 33.2931C11.6765 33.0337 11.6765 32.2437 10.1322 29.9158C9.87947 29.5349 9.45554 29.3072 8.99833 29.3072C8.54112 29.3072 8.11719 29.5349 7.86447 29.9158C6.31976 32.2437 6.31976 33.0333 6.31976 33.2931C6.31976 34.7698 7.52129 35.9713 8.99833 35.9713C10.475 35.9713 11.6765 34.7698 11.6765 33.2931ZM7.75531 33.2931C7.75531 33.015 8.08242 32.1985 8.99833 30.8041C9.91424 32.1985 10.2413 33.015 10.2413 33.2931C10.2413 33.9784 9.68358 34.5358 8.99833 34.5358C8.31308 34.5358 7.75531 33.9784 7.75531 33.2931Z" fill="#153B51"/>
<path d="M20.5234 33.2931C20.5234 33.0337 20.5234 32.2437 18.9791 29.9158C18.7264 29.5349 18.3025 29.3072 17.8453 29.3072C17.388 29.3072 16.9641 29.5349 16.7114 29.9158C15.1667 32.2437 15.1667 33.0333 15.1667 33.2931C15.1667 34.7698 16.3682 35.9713 17.8453 35.9713C19.3219 35.9713 20.5234 34.7698 20.5234 33.2931ZM16.6022 33.2931C16.6022 33.015 16.9293 32.1985 17.8453 30.8041C18.7612 32.1985 19.0879 33.015 19.0879 33.2931C19.0879 33.9784 18.5305 34.5358 17.8453 34.5358C17.16 34.5358 16.6022 33.9784 16.6022 33.2931Z" fill="#153B51"/>
<path d="M29.3704 33.2931C29.3704 33.0337 29.3704 32.2437 27.8261 29.9158C27.573 29.5349 27.1494 29.3072 26.6918 29.3072C26.235 29.3072 25.8111 29.5349 25.5583 29.9158C24.0136 32.2437 24.0136 33.0333 24.0136 33.2931C24.0136 34.7698 25.2152 35.9713 26.6918 35.9713C28.1689 35.9713 29.3704 34.7698 29.3704 33.2931ZM25.4492 33.2931C25.4492 33.015 25.7763 32.1981 26.6922 30.8041C27.6081 32.1985 27.9349 33.015 27.9349 33.2931C27.9349 33.9784 27.3775 34.5358 26.6922 34.5358C26.007 34.5358 25.4492 33.9784 25.4492 33.2931Z" fill="#153B51"/>
<path d="M38.2173 33.2931C38.2173 33.0333 38.2173 32.2437 36.673 29.9162C36.4203 29.5349 35.9963 29.3076 35.5391 29.3076C35.0819 29.3076 34.658 29.5349 34.4049 29.9162C32.8606 32.2441 32.8606 33.0337 32.8606 33.2931C32.8606 34.7701 34.0621 35.9713 35.5388 35.9713C37.0158 35.9713 38.2173 34.7698 38.2173 33.2931ZM34.2961 33.2931C34.2961 33.015 34.6232 32.1985 35.5391 30.8041C36.4547 32.1985 36.7818 33.015 36.7818 33.2931C36.7818 33.9783 36.2244 34.5357 35.5391 34.5357C34.8539 34.5357 34.2961 33.9783 34.2961 33.2931Z" fill="#153B51"/>
<path d="M8.99833 42.3359C8.54112 42.3359 8.11719 42.5636 7.86447 42.9445C6.31976 45.2725 6.31976 46.062 6.31976 46.3218C6.31976 47.7985 7.52129 49 8.99833 49C10.475 49 11.6765 47.7985 11.6765 46.3218C11.6765 46.0624 11.6765 45.2725 10.1322 42.9445C9.87947 42.5636 9.45554 42.3359 8.99833 42.3359ZM8.99833 47.5645C8.31308 47.5645 7.75531 47.0071 7.75531 46.3218C7.75531 46.0437 8.08242 45.2272 8.99833 43.8328C9.91424 45.2272 10.241 46.0437 10.241 46.3218C10.241 47.0071 9.68358 47.5645 8.99833 47.5645Z" fill="#153B51"/>
<path d="M17.8453 42.3359C17.388 42.3359 16.9641 42.5636 16.7114 42.9445C15.1667 45.2725 15.1667 46.062 15.1667 46.3218C15.1667 47.7985 16.3682 49 17.8453 49C19.3219 49 20.5234 47.7985 20.5234 46.3218C20.5234 46.0624 20.5234 45.2725 18.9791 42.9445C18.7264 42.5636 18.3025 42.3359 17.8453 42.3359ZM17.8453 47.5645C17.16 47.5645 16.6022 47.0071 16.6022 46.3218C16.6022 46.0437 16.9293 45.2268 17.8453 43.8328C18.7612 45.2272 19.0879 46.0437 19.0879 46.3218C19.0879 47.0071 18.5305 47.5645 17.8453 47.5645Z" fill="#153B51"/>
<path d="M26.6918 42.3359C26.235 42.3359 25.8111 42.5636 25.5583 42.9445C24.0136 45.2725 24.0136 46.062 24.0136 46.3218C24.0136 47.7985 25.2152 49 26.6918 49C28.1689 49 29.3704 47.7985 29.3704 46.3218C29.3704 46.0624 29.3704 45.2725 27.8257 42.9445C27.573 42.5636 27.1494 42.3359 26.6918 42.3359ZM26.6922 47.5645C26.0066 47.5645 25.4492 47.0071 25.4492 46.3218C25.4492 46.0437 25.7763 45.2268 26.6922 43.8328C27.6081 45.2272 27.9349 46.0437 27.9349 46.3218C27.9349 47.0071 27.3775 47.5645 26.6922 47.5645Z" fill="#153B51"/>
<path d="M35.5391 42.3359C35.0819 42.3359 34.658 42.5636 34.4049 42.9445C32.8606 45.2725 32.8606 46.062 32.8606 46.3218C32.8606 47.7985 34.0621 49 35.5388 49C37.0158 49 38.2173 47.7985 38.2173 46.3218C38.2173 46.062 38.2173 45.2725 36.6726 42.9445C36.4203 42.5636 35.9963 42.3359 35.5391 42.3359ZM35.5391 47.5645C34.8535 47.5645 34.2961 47.0071 34.2961 46.3218C34.2961 46.0437 34.6232 45.2272 35.5391 43.8328C36.4547 45.2268 36.7818 46.0437 36.7818 46.3218C36.7818 47.0071 36.2244 47.5645 35.5391 47.5645Z" fill="#153B51"/>
<path d="M16.1002 39.7318C16.1002 39.4723 16.1002 38.6828 14.5555 36.3549C14.3027 35.9735 13.8788 35.7462 13.4216 35.7462C12.9644 35.7462 12.5405 35.9735 12.2877 36.3549C10.7434 38.6824 10.7434 39.4723 10.7434 39.7318C10.7434 41.2088 11.9449 42.4103 13.4216 42.4103C14.8983 42.4103 16.1002 41.2088 16.1002 39.7318ZM13.4216 40.9748C12.7364 40.9748 12.179 40.417 12.179 39.7318C12.179 39.4536 12.5061 38.6372 13.4216 37.2427C14.3375 38.6372 14.6646 39.454 14.6646 39.7318C14.6646 40.417 14.1068 40.9748 13.4216 40.9748Z" fill="#153B51"/>
<path d="M24.9471 39.7318C24.9471 39.4723 24.9471 38.6824 23.4024 36.3549C23.1497 35.9739 22.7258 35.7462 22.2686 35.7462C21.8113 35.7462 21.3878 35.9739 21.1347 36.3549C19.5904 38.6828 19.5904 39.4723 19.5904 39.7318C19.5904 41.2088 20.7919 42.4103 22.2686 42.4103C23.7452 42.4103 24.9471 41.2088 24.9471 39.7318ZM22.2686 40.9748C21.5833 40.9748 21.0259 40.417 21.0259 39.7318C21.0259 39.454 21.353 38.6372 22.2686 37.2427C23.1845 38.6372 23.5116 39.4536 23.5116 39.7318C23.5116 40.417 22.9538 40.9748 22.2686 40.9748Z" fill="#153B51"/>
<path d="M33.794 39.7318C33.794 39.4723 33.794 38.6828 32.2493 36.3549C31.9966 35.9739 31.5727 35.7462 31.1155 35.7462C30.6583 35.7462 30.2347 35.9735 29.9816 36.3549C28.4373 38.6828 28.4373 39.4723 28.4373 39.7318C28.4373 41.2088 29.6388 42.4103 31.1155 42.4103C32.5921 42.4103 33.794 41.2088 33.794 39.7318ZM31.1155 40.9748C30.4302 40.9748 29.8728 40.417 29.8728 39.7318C29.8728 39.454 30.1999 38.6372 31.1159 37.2427C32.0314 38.6372 32.3585 39.454 32.3585 39.7318C32.3585 40.417 31.8007 40.9748 31.1155 40.9748Z" fill="#153B51"/>
<path d="M39.9624 35.7462C39.5052 35.7462 39.0813 35.9735 38.8286 36.3549C37.2838 38.6828 37.2838 39.4723 37.2838 39.7318C37.2838 41.2088 38.4857 42.4103 39.9624 42.4103C41.4391 42.4103 42.6406 41.2088 42.6406 39.7318C42.6406 39.4723 42.6406 38.6828 41.0963 36.3549C40.8436 35.9739 40.4196 35.7462 39.9624 35.7462ZM39.9624 40.9748C39.2772 40.9748 38.7198 40.417 38.7198 39.7318C38.7198 39.454 39.0465 38.6372 39.9624 37.2427C40.8783 38.6375 41.2054 39.454 41.2054 39.7318C41.2054 40.417 40.6477 40.9748 39.9624 40.9748Z" fill="#153B51"/>
</svg>
