<svg width="49" height="49" viewBox="0 0 49 49" fill="none" xmlns="http://www.w3.org/2000/svg">
<path d="M43.2002 16.9793C43.2677 16.4598 43.3014 15.9697 43.3014 15.4926C43.3014 8.88812 37.9277 3.51532 31.3223 3.51532C27.3671 3.51532 23.6521 5.5016 21.4324 8.75155C20.3183 8.17676 19.084 7.87597 17.8169 7.87597C13.7173 7.87597 10.3368 11.0161 9.95474 15.0475C5.71337 15.7727 2.60172 19.4081 2.60172 23.7921C2.60172 28.6904 6.58723 32.6742 11.4855 32.6742H21.6883L19.0875 37.8214H24.5761L20.9709 45.4856L31.1737 35.9207L25.7239 35.9258L27.61 32.6742H37.5145C42.4119 32.6742 46.3975 28.6904 46.3975 23.7921C46.3983 21.1282 45.2401 18.6734 43.2002 16.9793V16.9793ZM37.5145 30.9463H11.4864C7.54147 30.9463 4.33128 27.737 4.33128 23.793C4.33128 20.0564 7.13782 16.9957 10.8606 16.6725L11.648 16.5687V15.7761C11.648 12.3723 14.4156 9.6038 17.8186 9.6038C19.0399 9.6038 20.2224 9.96164 21.238 10.6393L22.0029 11.1493L22.4645 10.3541C24.2978 7.20177 27.6921 5.24316 31.3241 5.24316C36.976 5.24316 41.5744 9.84063 41.5744 15.4918C41.5744 16.0259 41.5234 16.586 41.4188 17.204L41.3306 17.7278L41.7576 18.0433C43.6082 19.4107 44.6696 21.5059 44.6696 23.7921C44.6696 27.737 41.4603 30.9463 37.5145 30.9463V30.9463ZM20.1774 40.7749L20.1748 41.6392C20.1731 42.1155 19.7867 42.5001 19.3105 42.5001C19.3096 42.5001 19.3087 42.5001 19.3079 42.5001C18.8299 42.4984 18.4444 42.112 18.4461 41.634L18.4487 40.7697C18.4504 40.2934 18.8368 39.907 19.3131 39.907H19.3156C19.7936 39.9088 20.1791 40.2969 20.1774 40.7749ZM31.8055 40.7749L31.802 41.6392C31.8003 42.1155 31.414 42.5001 30.9377 42.5001H30.936C30.458 42.4984 30.0716 42.112 30.0733 41.634L30.0768 40.7697C30.0785 40.2934 30.4649 39.907 30.9412 39.907H30.9429C31.4209 39.9088 31.8072 40.2969 31.8055 40.7749ZM14.3742 35.5767L14.3655 38.1697C14.3638 38.646 13.9774 39.0306 13.5012 39.0306C13.5003 39.0306 13.4994 39.0306 13.4986 39.0306C13.0206 39.0289 12.6351 38.6408 12.6368 38.1645L12.6455 35.5715C12.6472 35.0935 13.0336 34.7088 13.5098 34.7088H13.5124C13.9904 34.7106 14.3759 35.0987 14.3742 35.5767ZM14.3586 40.7628L14.3517 42.8899C14.35 43.3662 13.9636 43.7508 13.4873 43.7508C13.4865 43.7508 13.4856 43.7508 13.4847 43.7508C13.0068 43.7491 12.6213 43.361 12.623 42.8847L12.6299 40.7576C12.6316 40.2796 13.018 39.8949 13.4943 39.8949H13.4968C13.974 39.8967 14.3603 40.2848 14.3586 40.7628ZM37.6131 40.7628L37.6062 42.8899C37.6044 43.3662 37.2181 43.7508 36.7418 43.7508C36.7401 43.7508 36.7401 43.7508 36.7384 43.7508C36.2604 43.7491 35.8757 43.361 35.8775 42.8847L35.8844 40.7576C35.8861 40.2796 36.2725 39.8949 36.7487 39.8949H36.7505C37.2276 39.8967 37.6148 40.2848 37.6131 40.7628ZM37.6278 35.5767L37.6191 38.1697C37.6174 38.646 37.231 39.0306 36.7548 39.0306H36.753C36.2751 39.0289 35.8887 38.6408 35.8904 38.1645L35.8991 35.5715C35.9008 35.0935 36.2872 34.7088 36.7634 34.7088H36.7669C37.2449 34.7106 37.6295 35.0987 37.6278 35.5767Z" fill="#153B51"/>
</svg>
