<svg width="49" height="49" viewBox="0 0 49 49" fill="none" xmlns="http://www.w3.org/2000/svg">
<path d="M32.0968 26.5986C31.9645 26.5986 31.8349 26.596 31.7043 26.59L4.57932 26.5986C4.10133 26.5986 3.71497 26.2123 3.71497 25.7343C3.71497 25.2572 4.10133 24.8699 4.57932 24.8699L31.7424 24.8622C31.885 24.8673 31.9904 24.8699 32.0976 24.8699C36.167 24.8699 39.4774 21.5595 39.4774 17.4901C39.4774 13.4216 36.167 10.1112 32.0976 10.1112C28.0291 10.1112 24.7187 13.4216 24.7187 17.4901C24.7187 18.491 24.9157 19.4608 25.3021 20.3719C25.4897 20.8118 25.284 21.3192 24.8457 21.5059C24.4058 21.6943 23.8975 21.4877 23.7117 21.0495C23.2329 19.9233 22.99 18.7261 22.99 17.491C22.99 12.4691 27.0758 8.38333 32.0976 8.38333C37.1195 8.38333 41.2061 12.47 41.2061 17.491C41.2053 22.5129 37.1186 26.5986 32.0968 26.5986V26.5986ZM45.2867 34.351C45.2867 30.8953 42.4759 28.0845 39.0202 28.0845C38.9294 28.0845 38.8396 28.0862 38.7868 28.0896L4.57846 28.0845C4.10133 28.0845 3.71411 28.4708 3.71411 28.9488C3.71411 29.4259 4.10133 29.8132 4.57846 29.8132L38.824 29.8175L39.0202 29.8132C41.5225 29.8132 43.558 31.8487 43.558 34.351C43.558 36.8533 41.5225 38.8888 39.0202 38.8888C36.5179 38.8888 34.4824 36.8533 34.4824 34.351C34.4824 33.7347 34.6034 33.1392 34.8411 32.5791C35.0286 32.14 34.8229 31.6317 34.3847 31.445C33.9456 31.2566 33.4382 31.4615 33.2507 31.9014C32.9205 32.6759 32.7537 33.5005 32.7537 34.3501C32.7537 37.8058 35.5645 40.6167 39.0202 40.6167C42.4759 40.6167 45.2867 37.8067 45.2867 34.351V34.351ZM4.57846 23.2225L14.7095 23.219L14.9074 23.2225C17.6708 23.2225 19.9198 20.9735 19.9198 18.2101C19.9198 15.4468 17.6708 13.1978 14.9074 13.1978C12.1432 13.1978 9.89421 15.4468 9.89421 18.2101C9.89421 18.8895 10.0273 19.549 10.2918 20.1696C10.4785 20.6087 10.9876 20.811 11.4258 20.626C11.8649 20.4384 12.0698 19.931 11.8822 19.492C11.7102 19.0866 11.6229 18.6561 11.6229 18.2101C11.6229 16.3993 13.0958 14.9265 14.9074 14.9265C16.7183 14.9265 18.1911 16.3993 18.1911 18.2101C18.1911 20.0209 16.7183 21.4938 14.9074 21.4938L14.7285 21.4903L4.57759 21.4938C4.10047 21.4938 3.71324 21.881 3.71324 22.3581C3.71411 22.8361 4.10133 23.2225 4.57846 23.2225V23.2225ZM17.6881 32.4425C17.6881 31.9645 17.3017 31.5782 16.8237 31.5782H4.57846C4.10133 31.5782 3.71411 31.9645 3.71411 32.4425C3.71411 32.9205 4.10133 33.3069 4.57846 33.3069H16.8237C17.3017 33.3069 17.6881 32.9205 17.6881 32.4425Z" fill="#153B51"/>
</svg>
