<svg width="49" height="49" viewBox="0 0 49 49" fill="none" xmlns="http://www.w3.org/2000/svg">
<path d="M35.4314 45.6627C31.6395 45.6627 28.5555 42.5787 28.5555 38.7868C28.5555 37.8559 28.7396 36.9518 29.1009 36.1013C29.2885 35.6622 29.795 35.4565 30.2358 35.6449C30.6749 35.8316 30.8789 36.339 30.6913 36.7789C30.4208 37.4142 30.2842 38.091 30.2842 38.7877C30.2842 41.6254 32.5938 43.9349 35.4314 43.9349C38.2691 43.9349 40.5786 41.6254 40.5786 38.7877C40.5786 35.95 38.2691 33.6414 35.4314 33.6414C35.3571 33.6414 35.2862 33.6431 35.2154 33.6465L9.02814 33.6405C8.55015 33.6405 8.16379 33.2533 8.16379 32.7761C8.16379 32.2982 8.55102 31.9118 9.02814 31.9118L35.1739 31.9178C35.2309 31.9135 35.3294 31.9118 35.4323 31.9118C39.2242 31.9118 42.3082 34.9958 42.3082 38.7868C42.3073 42.5787 39.2233 45.6627 35.4314 45.6627ZM23.3305 39.3072C23.3305 37.1636 21.5854 35.4193 19.441 35.4193L19.3113 35.4211L9.029 35.4193C8.55188 35.4193 8.16465 35.8057 8.16465 36.2837C8.16465 36.7608 8.55102 37.148 9.029 37.148L19.3329 37.1498L19.4418 37.148C20.6338 37.148 21.6027 38.117 21.6027 39.3072C21.6027 40.4982 20.6338 41.4672 19.4418 41.4672C18.2516 41.4672 17.2827 40.4982 17.2827 39.3072C17.2827 38.8292 16.8963 38.4428 16.4183 38.4428C15.9403 38.4428 15.554 38.8292 15.554 39.3072C15.554 41.4508 17.2982 43.1959 19.4418 43.1959C21.5854 43.1959 23.3305 41.4508 23.3305 39.3072ZM44.2374 21.6217C44.2374 19.2205 43.2011 17.0078 41.3738 15.471C41.4309 15.0198 41.4603 14.592 41.4603 14.1736C41.4603 8.19835 36.5983 3.33725 30.6222 3.33725C27.0706 3.33725 23.7333 5.10744 21.7194 8.00993C20.7262 7.51033 19.6294 7.2493 18.504 7.2493C14.802 7.2493 11.7457 10.0671 11.3679 13.6973C7.55356 14.3828 4.76257 17.6656 4.76257 21.6208C4.76257 26.0653 8.37901 29.68 12.8226 29.68H36.1774C40.621 29.6809 44.2374 26.0653 44.2374 21.6217V21.6217ZM21.5232 9.89248L22.2881 10.4024L22.7497 9.60724C24.379 6.80589 27.3947 5.06595 30.6222 5.06595C35.6449 5.06595 39.7316 9.15173 39.7316 14.1736C39.7316 14.649 39.6858 15.146 39.5933 15.6949L39.5034 16.2187L39.9321 16.5341C41.5701 17.7442 42.5079 19.5983 42.5079 21.6217C42.5079 25.1128 39.6685 27.9522 36.1774 27.9522H12.8226C9.33152 27.9522 6.49127 25.1128 6.49127 21.6217C6.49127 18.3156 8.97455 15.6076 12.2686 15.3206L13.056 15.2203V14.4277C13.056 11.4224 15.4995 8.978 18.504 8.978C19.5827 8.97886 20.6268 9.29435 21.5232 9.89248V9.89248Z" fill="#153B51"/>
</svg>
