<svg width="49" height="49" viewBox="0 0 49 49" fill="none" xmlns="http://www.w3.org/2000/svg">
<path d="M44.5918 24.4533C43.6073 24.7023 42.5977 24.8276 41.5934 24.8276C36.0901 24.8276 31.2393 21.1144 29.7985 15.7977C28.6739 11.6549 29.7682 7.31501 32.7208 4.18866L34.1842 2.63974L32.0553 2.73136C30.9256 2.78063 29.8114 2.95177 28.7448 3.24219C24.8518 4.29756 21.6027 6.80504 19.5965 10.3039C17.8021 13.4337 17.2031 17.0217 17.8497 20.5283C17.1815 20.3969 16.5004 20.3096 15.8064 20.3096C9.89507 20.3096 5.08669 25.118 5.08669 31.0267C5.08669 31.4373 5.11435 31.8591 5.17139 32.3051C3.39083 33.8134 2.34238 36.0495 2.34238 38.3858C2.34238 42.7827 5.91992 46.3603 10.3177 46.3603H33.3941C37.792 46.3603 41.3695 42.7827 41.3695 38.3858C41.3695 35.7193 40.0868 33.3639 38.0755 31.9179C41.1655 30.7432 43.7828 28.5918 45.5409 25.7447L46.6619 23.9304L44.5918 24.4533ZM35.7184 32.5912C38.0426 33.5091 39.6382 35.7547 39.6382 38.3867C39.6382 41.8302 36.836 44.6325 33.3916 44.6325H10.316C6.87243 44.6325 4.06935 41.8311 4.06935 38.3867C4.06935 36.39 4.99593 34.561 6.6114 33.3682L7.03839 33.0528L6.95023 32.5298C6.85861 31.9844 6.81366 31.4935 6.81366 31.0276C6.81366 26.0714 10.8467 22.0392 15.8046 22.0392C16.6413 22.0461 18.8739 22.1775 21.0547 23.7281C22.8171 24.9815 23.6763 26.5442 24.0367 27.3161L24.8016 26.8061C25.6867 26.2166 26.7145 25.9046 27.7785 25.9046C30.7415 25.9046 33.1521 28.3153 33.1504 31.3102V32.102V32.1028C33.5368 32.0968 34.0234 32.1227 34.5714 32.2377C35.0217 32.331 35.4072 32.4624 35.7184 32.5912V32.5912ZM27.7793 24.1767C26.6704 24.1767 25.5882 24.4335 24.6072 24.9253C24.188 24.3202 23.5648 23.5536 22.6771 22.8119C21.5785 21.8949 20.498 21.3702 19.727 21.0694C17.9594 14.031 22.1628 6.81887 29.1977 4.91212C29.4899 4.8326 29.7872 4.76258 30.0871 4.70381C27.7759 8.05662 27.042 12.2349 28.1303 16.2507C29.7742 22.3193 35.3104 26.5572 41.5934 26.5572C42.0152 26.5572 42.4378 26.539 42.8579 26.5001C41.1206 28.5365 38.811 30.0085 36.1912 30.7181C36.0728 30.7501 35.9535 30.7726 35.8351 30.7968L35.8247 30.7994C35.5058 30.6991 35.1808 30.6101 34.8437 30.5496C34.7823 29.9212 34.5126 28.0145 32.9559 26.3713C30.9238 24.2269 28.2599 24.1776 27.7793 24.1767V24.1767Z" fill="#153B51"/>
</svg>
