<svg width="49" height="49" viewBox="0 0 49 49" fill="none" xmlns="http://www.w3.org/2000/svg">
<path d="M21.9078 7.02109L21.9182 7.00381C21.9182 7.00294 21.9173 6.99948 21.9173 6.99948C21.9173 6.42037 23.3997 3.98463 23.9001 3.99241C24.4023 3.99846 25.8838 6.42037 25.8838 6.99948V7.00381L25.8968 7.02109H25.8821C25.8665 7.91397 24.9892 8.63916 23.9001 8.63916C22.8145 8.63916 21.9372 7.91397 21.919 7.02109H21.9078ZM37.9691 23.0695V23.0824L37.9873 23.0703H37.9925C38.5699 23.0703 40.9935 21.5897 40.9978 21.0875C41.0047 20.5862 38.5699 19.1047 37.9925 19.1047C37.9908 19.1047 37.9882 19.1056 37.9873 19.1056L37.9691 19.0952V19.1064C37.0763 19.1237 36.3528 20.0019 36.3528 21.0875C36.3528 22.1749 37.0763 23.0548 37.9691 23.0695ZM9.8337 19.109V19.0952L9.81554 19.1064C9.81468 19.1064 9.81209 19.1064 9.81122 19.1064C9.23297 19.1064 6.8102 20.5879 6.80415 21.0893C6.79637 21.5906 9.23297 23.0729 9.81122 23.0729C9.81209 23.0729 9.81468 23.0721 9.81554 23.0721L9.8337 23.0824V23.0703C10.7266 23.0539 11.4509 22.1749 11.4509 21.0893C11.4509 20.0028 10.7266 19.1246 9.8337 19.109V19.109ZM32.7053 12.285C33.4737 13.0543 34.606 13.1632 35.2482 12.5417L35.2577 12.5503L35.2629 12.5322C35.2646 12.5313 35.2663 12.5296 35.2672 12.5279C35.6743 12.1199 36.3407 9.35916 35.9889 8.99959C35.6397 8.64088 32.8712 9.31508 32.4632 9.72392C32.4598 9.72564 32.4589 9.72651 32.4589 9.7291L32.439 9.73256L32.4468 9.73947C31.8262 10.3843 31.9368 11.5166 32.7053 12.285V12.285ZM15.3431 32.452L15.3621 32.4451L15.3552 32.4399C15.9766 31.7951 15.8643 30.6602 15.0967 29.8944C14.3274 29.1242 13.1969 29.0162 12.5538 29.6377L12.5434 29.6273L12.54 29.6472C12.5382 29.6472 12.5365 29.6506 12.5365 29.6506C12.1268 30.0595 11.4604 32.8193 11.8113 33.1772C12.1623 33.5402 14.9316 32.8634 15.3396 32.4546C15.3422 32.4555 15.3431 32.452 15.3431 32.452ZM46.7406 39.0565C46.7406 42.7239 43.756 45.7077 40.0877 45.7077H21.3028C17.6345 45.7077 14.6499 42.7239 14.6499 39.0565C14.6499 35.8359 16.892 33.1564 19.976 32.5419C20.0244 32.1486 20.1143 31.7674 20.2361 31.4018C15.898 29.8676 12.9454 25.7611 12.9454 21.0893C12.9454 19.5144 13.2876 17.9681 13.9411 16.5436H7.00727C4.38916 16.5436 2.2594 14.4139 2.2594 11.7958C2.2594 9.17765 4.38916 7.04789 7.00727 7.04789H7.09976C7.87162 4.83515 9.98928 3.29315 12.3792 3.29315C14.139 3.29315 15.7666 4.10823 16.822 5.49552C19.5594 5.56553 21.8032 7.63737 22.1524 10.2987C22.7393 10.201 23.3245 10.1345 23.9001 10.1345C29.9402 10.1345 34.8549 15.0492 34.8549 21.0901C34.8549 22.1827 34.6777 23.2484 34.3588 24.2813C34.7728 24.2217 35.192 24.181 35.6172 24.181C40.5181 24.181 44.5045 28.1666 44.5045 33.0657C44.5045 33.3803 44.4855 33.7018 44.4448 34.0415C45.8918 35.2974 46.7406 37.1359 46.7406 39.0565V39.0565ZM20.4712 10.9617C20.4384 8.89587 18.7538 7.22335 16.6802 7.22335H15.8954L15.6404 6.82143C14.9273 5.69432 13.7077 5.02185 12.3801 5.02185C10.5623 5.02185 8.97367 6.31146 8.60113 8.08943L8.45765 8.77659H7.00727C5.34253 8.77659 3.9881 10.131 3.9881 11.7958C3.9881 13.4605 5.3434 14.8149 7.00727 14.8149H14.9169H16.6802C16.9724 14.7985 18.3009 14.6931 19.3632 13.5815C20.3753 12.5235 20.4591 11.2711 20.4712 10.9617V10.9617ZM15.8807 16.541C15.0907 17.9301 14.6741 19.4919 14.6741 21.0867C14.6741 25.0929 17.2524 28.6074 21.0175 29.8425C21.4004 29.3948 22.5033 28.2262 24.3798 27.7223C26.2866 27.2106 27.8502 27.6929 28.4017 27.8917C28.7189 27.4033 29.2401 26.724 30.0387 26.0852C30.9057 25.392 31.7536 25.0246 32.3258 24.8276C32.8582 23.6382 33.1279 22.3806 33.1279 21.0867C33.1279 15.9991 28.9894 11.8597 23.9019 11.8597C23.315 11.8597 22.7151 11.9228 22.1118 12.0447C21.9562 12.5763 21.4428 14.0751 19.9474 15.2359C18.2395 16.5618 16.3958 16.5592 15.8807 16.541V16.541ZM28.9713 30.2747L28.2063 29.7647C27.9124 29.5685 27.5978 29.4121 27.2685 29.2963C27.2685 29.2963 26.5839 29.056 25.8726 29.0594C24.7688 29.0646 23.5181 29.6671 22.6926 30.6835C21.4972 32.1547 21.709 33.8574 21.7496 34.1461L20.8732 34.1608C18.3121 34.383 16.3803 36.4885 16.3803 39.06C16.3803 41.7749 18.5896 43.9824 21.3045 43.9824H40.0894C42.8035 43.979 45.0119 41.7706 45.0119 39.0565C45.0119 37.4842 44.2806 36.0416 43.0074 35.1012L42.5804 34.7857L42.6686 34.2628C42.7421 33.828 42.7775 33.4365 42.7775 33.0657C42.7775 29.1199 39.5656 25.9097 35.619 25.9097C34.8903 25.9547 33.427 26.1448 31.8988 27.0896C30.158 28.1657 29.3049 29.6213 28.9713 30.2747V30.2747Z" fill="#153B51"/>
</svg>
