<svg width="49" height="49" viewBox="0 0 49 49" fill="none" xmlns="http://www.w3.org/2000/svg">
<path d="M33.6301 11.3187H14.2903C13.8123 11.3187 13.4259 10.9314 13.4259 10.4543C13.4259 9.97719 13.8123 9.58997 14.2903 9.58997H33.6301C34.1081 9.58997 34.4945 9.97719 34.4945 10.4543C34.4945 10.9314 34.1081 11.3187 33.6301 11.3187ZM39.4645 14.4675C39.4645 13.9904 39.0781 13.6031 38.6001 13.6031H6.07896C5.60184 13.6031 5.21461 13.9904 5.21461 14.4675C5.21461 14.9446 5.60184 15.3318 6.07896 15.3318H38.6001C39.0781 15.3318 39.4645 14.9446 39.4645 14.4675ZM34.4945 18.4807C34.4945 18.0035 34.1081 17.6163 33.6301 17.6163H6.187C5.70988 17.6163 5.32265 18.0035 5.32265 18.4807C5.32265 18.9578 5.70988 19.345 6.187 19.345H33.6301C34.1081 19.345 34.4945 18.9587 34.4945 18.4807ZM43.7862 22.4938C43.7862 22.0159 43.3999 21.6295 42.9219 21.6295H15.4788C15.0008 21.6295 14.6144 22.0159 14.6144 22.4938C14.6144 22.9718 15.0008 23.3582 15.4788 23.3582H42.9219C43.3999 23.3582 43.7862 22.9718 43.7862 22.4938ZM42.0575 26.5062C42.0575 26.0282 41.6712 25.6418 41.1932 25.6418H9.86049C9.38251 25.6418 8.99614 26.0282 8.99614 26.5062C8.99614 26.9841 9.38251 27.3705 9.86049 27.3705H41.1932C41.6712 27.3705 42.0575 26.9841 42.0575 26.5062ZM39.2484 30.5193C39.2484 30.0413 38.862 29.655 38.384 29.655H5.97092C5.4938 29.655 5.10657 30.0413 5.10657 30.5193C5.10657 30.9973 5.4938 31.3837 5.97092 31.3837H38.384C38.862 31.3837 39.2484 30.9965 39.2484 30.5193ZM43.8943 34.5334C43.8943 34.0554 43.5079 33.669 43.0299 33.669H17.7477C17.2697 33.669 16.8833 34.0554 16.8833 34.5334C16.8833 35.0114 17.2697 35.3977 17.7477 35.3977H43.0299C43.5079 35.3977 43.8943 35.0114 43.8943 34.5334ZM41.8414 38.5466C41.8414 38.0686 41.4551 37.6822 40.9771 37.6822H15.4788C15.0008 37.6822 14.6144 38.0686 14.6144 38.5466C14.6144 39.0245 15.0008 39.4109 15.4788 39.4109H40.9771C41.4551 39.4109 41.8414 39.0237 41.8414 38.5466Z" fill="#153B51"/>
</svg>
