<svg width="49" height="49" viewBox="0 0 49 49" fill="none" xmlns="http://www.w3.org/2000/svg">
<path d="M37.4973 33.5463H6.16457C5.68658 33.5463 5.30022 33.1599 5.30022 32.6819C5.30022 32.204 5.68658 31.8176 6.16457 31.8176H37.4973C37.9752 31.8176 38.3616 32.204 38.3616 32.6819C38.3616 33.1599 37.9752 33.5463 37.4973 33.5463ZM44.196 36.6943C44.196 36.2163 43.8096 35.8299 43.3316 35.8299H10.9185C10.4405 35.8299 10.0541 36.2163 10.0541 36.6943C10.0541 37.1722 10.4405 37.5586 10.9185 37.5586H43.3316C43.8096 37.5586 44.196 37.1722 44.196 36.6943ZM34.1479 40.7074C34.1479 40.2294 33.7615 39.8431 33.2835 39.8431H8.00131C7.52333 39.8431 7.13696 40.2294 7.13696 40.7074C7.13696 41.1854 7.52333 41.5718 8.00131 41.5718H33.2835C33.7615 41.5718 34.1479 41.1846 34.1479 40.7074ZM40.7386 44.7197C40.7386 44.2418 40.3522 43.8554 39.8742 43.8554H14.3759C13.8979 43.8554 13.5115 44.2418 13.5115 44.7197C13.5115 45.1977 13.8979 45.5841 14.3759 45.5841H39.8742C40.3522 45.5841 40.7386 45.1977 40.7386 44.7197ZM33.5662 14.955L37.8058 13.7501L33.5947 12.4527L32.3898 8.21565L31.0933 12.425L26.8545 13.6291L31.0656 14.9273L32.2697 19.1652L33.5662 14.955ZM40.8285 21.6278L43.7742 20.6649L40.7775 19.868L39.8128 16.9231L39.0194 19.9181L36.0728 20.8827L39.0695 21.6779L40.0324 24.6227L40.8285 21.6278ZM21.1152 5.73842C21.0357 5.75917 20.9562 5.77991 20.8775 5.80152C11.1069 8.44989 5.1334 17.9301 6.80159 27.7569H21.0608C20.0417 26.0792 19.2672 24.2684 18.746 22.3478C17.1928 16.6128 18.0865 10.6609 21.1152 5.73842ZM25.0662 3.41678C20.5646 8.18194 18.5749 15.1054 20.4151 21.8957C21.2008 24.7947 22.6106 27.3524 24.4482 29.4864H5.39184C2.73137 18.3968 9.3471 7.13608 20.4246 4.13332C21.9735 3.71325 23.5285 3.48247 25.0662 3.41678V3.41678Z" fill="#153B51"/>
</svg>
