<svg width="49" height="49" viewBox="0 0 49 49" fill="none" xmlns="http://www.w3.org/2000/svg">
<path d="M43.2002 17.0372C43.2676 16.5177 43.3013 16.0276 43.3013 15.5505C43.3013 8.94514 37.9277 3.57321 31.3223 3.57321C27.367 3.57321 23.6521 5.55949 21.4324 8.80944C20.3183 8.23465 19.084 7.93386 17.8168 7.93386C13.7172 7.93386 10.3368 11.074 9.95471 15.1054C5.71334 15.8306 2.60168 19.466 2.60168 23.8509C2.60168 28.7483 6.5872 32.7329 11.4855 32.7329H37.5145C42.4119 32.7329 46.3974 28.7483 46.3974 23.8509C46.3983 21.1869 45.2401 18.7322 43.2002 17.0372V17.0372ZM37.5145 31.0042H11.4863C7.54144 31.0042 4.33125 27.7949 4.33125 23.8509C4.33125 20.1151 7.13779 17.0545 10.8605 16.7312L11.648 16.6275V15.8349C11.648 12.4311 14.4156 9.66255 17.8186 9.66255C19.0399 9.66255 20.2223 10.0204 21.2379 10.6972L22.0029 11.208L22.4644 10.4128C24.2977 7.26053 27.692 5.30191 31.324 5.30191C36.976 5.30191 41.5743 9.89939 41.5743 15.5505C41.5743 16.0847 41.5234 16.6448 41.4188 17.2619L41.3306 17.7857L41.7576 18.1003C43.6082 19.4677 44.6696 21.5638 44.6696 23.8491C44.6696 27.7949 41.4603 31.0042 37.5145 31.0042V31.0042ZM14.3793 35.6371L14.3517 44.5659C14.3499 45.043 13.9636 45.4276 13.4873 45.4276C13.4864 45.4276 13.4856 45.4276 13.4847 45.4276C13.0067 45.4259 12.6212 45.0378 12.623 44.5607L12.6506 35.6328C12.6523 35.1557 13.0387 34.771 13.515 34.771H13.5176C13.9955 34.7719 14.381 35.1609 14.3793 35.6371ZM20.1895 35.6337L20.1705 41.87C20.1687 42.3471 19.7824 42.7317 19.3061 42.7317C19.3052 42.7317 19.3044 42.7317 19.3035 42.7317C18.8255 42.73 18.44 42.3419 18.4418 41.8648L18.4608 35.6285C18.4625 35.1514 18.8489 34.7667 19.3251 34.7667H19.3277C19.8057 34.7685 20.1912 35.1565 20.1895 35.6337ZM26.0065 35.6293L25.978 44.5572C25.9763 45.0343 25.5899 45.419 25.1137 45.419H25.1119C24.634 45.4172 24.2476 45.0291 24.2493 44.552L24.2778 35.6242C24.2796 35.147 24.6659 34.7624 25.1422 34.7624H25.1457C25.6236 34.7641 26.0083 35.1522 26.0065 35.6293ZM31.8176 35.6259L31.7977 41.8622C31.796 42.3393 31.4096 42.7239 30.9333 42.7239H30.9316C30.4536 42.7222 30.0673 42.3341 30.069 41.857L30.0889 35.6207C30.0906 35.1427 30.4519 34.727 30.9549 34.7589C31.4321 34.7607 31.8193 35.1488 31.8176 35.6259ZM37.6329 35.6216L37.6061 44.5494C37.6044 45.0266 37.218 45.4112 36.7418 45.4112C36.74 45.4112 36.74 45.4112 36.7383 45.4112C36.2603 45.4095 35.8757 45.0214 35.8774 44.5442L35.9042 35.6164C35.9059 35.1393 36.2923 34.7546 36.7686 34.7546H36.772C37.25 34.7564 37.6346 35.1444 37.6329 35.6216Z" fill="#153B51"/>
</svg>
