<svg width="49" height="49" viewBox="0 0 49 49" fill="none" xmlns="http://www.w3.org/2000/svg">
<path d="M45.8391 24.5C45.8391 24.978 45.4527 25.3643 44.9747 25.3643H40.4049L43.9116 28.871C44.2495 29.209 44.2495 29.7552 43.9116 30.0932C43.743 30.2618 43.5217 30.3465 43.3005 30.3465C43.0792 30.3465 42.8579 30.2618 42.6894 30.0932L37.9605 25.3643H25.997L31.9248 35.632L38.5318 37.4021C38.9925 37.5257 39.2665 37.9994 39.1429 38.461C39.0401 38.8465 38.6909 39.1015 38.3088 39.1015C38.2345 39.1015 38.1593 39.0919 38.0841 39.0721L33.1469 37.7496L35.4859 41.8017C35.7244 42.2157 35.5827 42.7438 35.1695 42.9824C35.0338 43.061 34.8852 43.0982 34.7382 43.0982C34.4392 43.0982 34.1487 42.9435 33.9888 42.666L31.7043 38.7099L30.4217 43.4975C30.3188 43.883 29.9696 44.138 29.5876 44.138C29.5132 44.138 29.438 44.1285 29.3628 44.1086C28.9021 43.985 28.6281 43.5114 28.7517 43.0498L30.4822 36.5922L24.4991 26.2304L18.5723 36.4963L20.3433 43.1034C20.4678 43.5641 20.1929 44.0386 19.7322 44.1622C19.657 44.1821 19.5818 44.1916 19.5075 44.1916C19.1263 44.1916 18.7771 43.9375 18.6734 43.5511L17.3501 38.614L15.0112 42.666C14.8504 42.9426 14.5608 43.0982 14.2618 43.0982C14.1148 43.0982 13.9662 43.061 13.8305 42.9824C13.4164 42.7438 13.2747 42.2148 13.5141 41.8017L15.7986 37.8447L11.0109 39.1274C10.9357 39.1473 10.8605 39.1568 10.7862 39.1568C10.405 39.1568 10.055 38.9027 9.95212 38.5163C9.82852 38.0556 10.1025 37.5811 10.5632 37.4575L17.0208 35.727L23.0038 25.3661H11.1484L6.31234 30.2004C6.14379 30.3689 5.92252 30.4536 5.70124 30.4536C5.47997 30.4536 5.2587 30.3689 5.09015 30.2004C4.75219 29.8624 4.75219 29.3162 5.09015 28.9782L8.70486 25.3635H4.02527C3.54815 25.3635 3.16092 24.9771 3.16092 24.4991C3.16092 24.022 3.54815 23.6348 4.02527 23.6348H8.59509L5.09015 20.1307C4.75219 19.7927 4.75219 19.2465 5.09015 18.9085C5.42811 18.5706 5.97438 18.5706 6.31234 18.9085L11.0403 23.6365H23.0029L17.077 13.3706L10.4699 11.6004C10.0092 11.4768 9.73517 11.0032 9.85877 10.5416C9.98323 10.0801 10.4569 9.80692 10.9176 9.93052L15.8539 11.2538L13.5158 7.20349C13.2773 6.78947 13.419 6.26135 13.8322 6.02279C14.2445 5.78423 14.7735 5.92512 15.0129 6.33915L17.2982 10.2961L18.5809 5.50591C18.7045 5.04435 19.1799 4.76949 19.6398 4.89482C20.1005 5.01842 20.3745 5.49208 20.2508 5.95365L18.5204 12.4138L24.5009 22.773L30.4286 12.5063L28.6584 5.90006C28.5348 5.43849 28.8088 4.96483 29.2695 4.84123C29.731 4.71849 30.2047 4.99162 30.3283 5.45232L31.6508 10.3886L33.9888 6.33828C34.2274 5.92426 34.7572 5.7825 35.1695 6.02193C35.5836 6.26049 35.7253 6.78947 35.4859 7.20263L33.2005 11.1614L37.9908 9.87693C38.4532 9.75333 38.9251 10.0265 39.0496 10.488C39.1741 10.9487 38.8992 11.4233 38.4385 11.5469L31.9775 13.2781L25.997 23.6374H37.8533L42.6894 18.8013C43.0273 18.4634 43.5736 18.4634 43.9116 18.8013C44.2495 19.1393 44.2495 19.6856 43.9116 20.0235L40.2977 23.6374H44.9747C45.4527 23.6356 45.8391 24.0229 45.8391 24.5V24.5Z" fill="#153B51"/>
</svg>
