<svg width="49" height="49" viewBox="0 0 49 49" fill="none" xmlns="http://www.w3.org/2000/svg">
<path d="M24.5009 37.7202C17.2109 37.7202 11.2815 31.7908 11.2815 24.5009C11.2815 17.2127 17.2109 11.2832 24.5009 11.2832C31.7882 11.2832 37.7176 17.2127 37.7176 24.5009C37.7176 31.7899 31.7882 37.7202 24.5009 37.7202ZM24.5009 13.011C18.1652 13.011 13.0102 18.1652 13.0102 24.5C13.0102 30.8365 18.1652 35.9907 24.5009 35.9907C30.8366 35.9907 35.9889 30.8357 35.9889 24.5C35.9889 18.1652 30.8366 13.011 24.5009 13.011V13.011ZM26.9418 7.27868L26.9262 7.25793C26.9262 7.25707 26.9262 7.25275 26.9262 7.25275C26.9262 6.54484 25.1128 3.57926 24.4983 3.57321C23.8854 3.56284 22.0712 6.54484 22.0712 7.25275C22.0712 7.25275 22.072 7.25707 22.072 7.25793L22.0591 7.27868H22.0738C22.0937 8.37294 23.1698 9.25977 24.4983 9.25977C25.8311 9.25977 26.9064 8.37294 26.9245 7.27868H26.9418ZM22.0599 41.723L22.0746 41.7438V41.7507C22.0746 42.4569 23.888 45.4216 24.5017 45.4285C25.1171 45.438 26.9288 42.4569 26.9288 41.7507C26.9288 41.7481 26.9288 41.7438 26.9288 41.7438L26.9427 41.723H26.9271C26.9089 40.6288 25.8311 39.7437 24.5017 39.7437C23.1706 39.7437 22.0954 40.6288 22.0781 41.723H22.0599ZM41.7222 26.9409L41.7438 26.9271H41.7507C42.4577 26.9271 45.4225 25.1137 45.4294 24.4991C45.438 23.8846 42.4577 22.072 41.7507 22.072C41.7472 22.072 41.7438 22.0729 41.7438 22.0729L41.7222 22.0591V22.0746C40.6296 22.0928 39.7437 23.1706 39.7437 24.4991C39.7437 25.8302 40.6296 26.9072 41.7222 26.9254V26.9409ZM7.27869 22.0599L7.25708 22.0755C7.25622 22.0755 7.25363 22.0755 7.2519 22.0755C6.54486 22.0755 3.57841 23.888 3.57149 24.5026C3.56199 25.1163 6.54399 26.9314 7.2519 26.9314C7.25363 26.9314 7.25622 26.9297 7.25708 26.9297L7.27869 26.9418V26.9279C8.37296 26.9081 9.25892 25.8302 9.25892 24.5026C9.25892 23.1715 8.37296 22.0962 7.27869 22.0772V22.0599ZM14.0474 10.5978L14.0241 10.5926C14.0232 10.59 14.0206 10.5883 14.0206 10.5883C13.5193 10.0878 10.1406 9.2736 9.7006 9.70232C9.25978 10.131 10.0861 13.521 10.5857 14.0215C10.5892 14.0232 10.5892 14.0232 10.5917 14.0249L10.5978 14.0474L10.6064 14.0388C11.3947 14.7994 12.7829 14.6637 13.7224 13.7241C14.6628 12.7829 14.7968 11.3964 14.0362 10.6099L14.0474 10.5978ZM34.9534 38.4031L34.9768 38.4091C34.9768 38.4117 34.9802 38.4134 34.9802 38.416C35.4816 38.9139 38.8594 39.7307 39.2985 39.2985C39.7411 38.8698 38.9156 35.4798 38.4143 34.982C38.4143 34.9776 38.4108 34.9776 38.4091 34.9776L38.4022 34.9543L38.3936 34.9629C37.6053 34.2023 36.2171 34.3389 35.2776 35.2793C34.3372 36.2189 34.2041 37.6044 34.9655 38.3927L34.9534 38.4031ZM38.4031 14.0474L38.4083 14.0249C38.4117 14.0241 38.4134 14.0215 38.4152 14.0197C38.913 13.5201 39.729 10.1405 39.2977 9.70059C38.8707 9.2615 35.4807 10.0861 34.9811 10.5865C34.9777 10.5883 34.9777 10.59 34.9777 10.5935L34.9543 10.5986L34.963 10.6073C34.2032 11.3956 34.338 12.7829 35.2784 13.7224C36.2189 14.6637 37.6044 14.7968 38.3918 14.0362L38.4031 14.0474ZM10.5978 34.9534L10.5926 34.9768C10.5909 34.9768 10.5892 34.9811 10.5892 34.9811C10.0878 35.4816 9.27188 38.8603 9.70146 39.2977C10.1319 39.7428 13.5219 38.9156 14.0206 38.4152C14.0232 38.4152 14.0241 38.4108 14.0241 38.4108L14.0474 38.4022L14.0388 38.3953C14.7994 37.607 14.6628 36.2171 13.7224 35.2784C12.782 34.338 11.3965 34.204 10.609 34.9638L10.5978 34.9534Z" fill="#153B51"/>
</svg>
