<svg width="49" height="49" viewBox="0 0 49 49" fill="none" xmlns="http://www.w3.org/2000/svg">
<g clip-path="url(#clip0)">
<path d="M17.9499 8.21111C18.3461 8.21111 18.6676 7.88961 18.6676 7.49333V5.12019C18.6676 4.72392 18.3461 4.40242 17.9499 4.40242C17.5536 4.40242 17.2321 4.72392 17.2321 5.12019V7.49333C17.2321 7.88961 17.5536 8.21111 17.9499 8.21111Z" fill="#194964"/>
<path d="M9.89851 9.84291C10.0316 10.0732 10.2727 10.2018 10.521 10.2018C10.6428 10.2018 10.7662 10.1708 10.8791 10.1053C11.2227 9.90721 11.34 9.46832 11.1419 9.12514L9.95533 7.07014C9.7572 6.72658 9.31831 6.60882 8.97512 6.80733C8.63156 7.00546 8.51418 7.44435 8.71231 7.78791L9.89851 9.84291Z" fill="#194964"/>
<path d="M2.66772 14.3577L4.72272 15.5443C4.83562 15.6097 4.95899 15.6404 5.08086 15.6404C5.32871 15.6404 5.57021 15.5118 5.70293 15.2815C5.90144 14.9383 5.78368 14.4994 5.44049 14.3009L3.38549 13.1147C3.04193 12.9162 2.60304 13.034 2.40491 13.3775C2.20677 13.7207 2.32416 14.1596 2.66772 14.3577Z" fill="#194964"/>
<path d="M3.80869 22.3523C3.80869 21.956 3.48718 21.6345 3.09091 21.6345H0.717773C0.321503 21.6345 0 21.956 0 22.3523C0 22.7486 0.321503 23.0701 0.717773 23.0701H3.09091C3.48718 23.0701 3.80869 22.7486 3.80869 22.3523Z" fill="#194964"/>
<path d="M30.8189 15.6404C30.9404 15.6404 31.0641 15.6097 31.177 15.5443L33.232 14.3577C33.5752 14.1596 33.693 13.7207 33.4949 13.3775C33.2967 13.034 32.8575 12.9162 32.5143 13.1147L30.4593 14.3009C30.1161 14.4994 29.9983 14.9383 30.1965 15.2815C30.3295 15.5118 30.5707 15.6404 30.8189 15.6404Z" fill="#194964"/>
<path d="M5.70293 29.4231C5.50479 29.0795 5.0659 28.9618 4.72272 29.1603L2.66772 30.3465C2.32416 30.545 2.20677 30.9839 2.40491 31.3271C2.53762 31.5574 2.77912 31.686 3.02698 31.686C3.14885 31.686 3.27222 31.6549 3.38549 31.5899L5.44049 30.4033C5.78368 30.2052 5.90144 29.7663 5.70293 29.4231Z" fill="#194964"/>
<path d="M25.0207 10.1053C25.1336 10.1708 25.2569 10.2018 25.3788 10.2018C25.6267 10.2018 25.8682 10.0732 26.0009 9.84291L27.1874 7.78791C27.3856 7.44435 27.2678 7.00546 26.9246 6.80733C26.5814 6.60882 26.1426 6.72658 25.9441 7.07014L24.7579 9.12514C24.5593 9.46832 24.6771 9.90721 25.0207 10.1053Z" fill="#194964"/>
<path d="M47.0076 32.6108C45.8756 31.4426 44.4034 30.7106 42.8083 30.5121C42.1073 24.1299 36.6814 19.218 30.1905 19.218C29.882 19.218 29.5744 19.2293 29.2686 19.2513C28.8487 17.7204 28.1112 16.2684 27.1153 15.0247C26.8678 14.7151 26.4158 14.6654 26.1066 14.9129C25.7971 15.1608 25.747 15.6124 25.9945 15.9219C26.827 16.9615 27.4536 18.1668 27.8297 19.439C26.2322 19.7399 24.7047 20.3444 23.326 21.2327C21.4408 22.4465 19.9159 24.1299 18.8949 26.1161C18.5289 26.0712 18.1577 26.0473 17.7835 26.0473C14.8743 26.0473 12.2585 27.398 10.5512 29.5173C8.67716 27.5875 7.65022 25.0619 7.65022 22.3523C7.65022 16.6729 12.2705 12.0527 17.9495 12.0527C20.0804 12.0527 22.1253 12.6983 23.8632 13.9192C24.1877 14.1473 24.6352 14.0688 24.8633 13.7447C25.0909 13.4202 25.0128 12.9727 24.6887 12.7446C22.7077 11.3528 20.3776 10.6171 17.9495 10.6171C11.4791 10.6171 6.21468 15.8815 6.21468 22.3523C6.21468 25.4907 7.49246 28.5274 9.72764 30.7244C9.13623 31.7555 8.7351 32.9106 8.57809 34.145C6.03898 34.5353 4.13165 36.7088 4.13165 39.3451C4.13165 42.2476 6.49319 44.6088 9.39568 44.6088H33.943C34.3393 44.6088 34.6608 44.2877 34.6608 43.891C34.6608 43.4948 34.3393 43.1733 33.943 43.1733H29.8017C31.2843 41.9807 32.2357 40.153 32.2357 38.1062C32.2357 36.9642 31.9337 35.8397 31.3624 34.8535C31.1639 34.5103 30.7247 34.3933 30.3815 34.5922C30.0387 34.7907 29.9217 35.2299 30.1202 35.5727C30.565 36.3406 30.8002 37.2169 30.8002 38.1062C30.8002 40.9003 28.5269 43.1733 25.7332 43.1733H9.39568C7.28461 43.1733 5.56757 41.4558 5.56757 39.3451C5.56757 37.2715 7.19003 35.5914 9.26184 35.5204C9.63157 35.5077 9.93101 35.2157 9.95344 34.8464C10.2035 30.7173 13.6429 27.4829 17.7835 27.4829C21.037 27.4829 23.9903 29.5293 25.132 32.5753C25.236 32.8527 25.4995 33.0377 25.7956 33.0411C26.6214 33.0512 27.439 33.2647 28.1601 33.6591C28.5082 33.8493 28.9441 33.7215 29.1344 33.3738C29.3246 33.0261 29.1968 32.5899 28.8491 32.3996C28.0641 31.9704 27.1904 31.708 26.2977 31.6299C25.1866 29.078 22.9776 27.1819 20.3619 26.4182C21.2624 24.8099 22.544 23.4439 24.1036 22.4394C25.9175 21.2712 28.0226 20.6536 30.1908 20.6536C36.1337 20.6536 41.0699 25.2959 41.4288 31.2224C41.4512 31.5917 41.7507 31.8837 42.1208 31.8964C45.1732 32.0011 47.5642 34.477 47.5642 37.5324C47.5642 40.6427 45.0337 43.1736 41.923 43.1736H37.0691C36.6724 43.1736 36.3513 43.4948 36.3513 43.8914C36.3513 44.2877 36.6724 44.6092 37.0691 44.6092H41.923C45.8251 44.6092 49.0001 41.4345 49.0001 37.5324C48.9998 35.6849 48.2921 33.9376 47.0076 32.6108Z" fill="#194964"/>
<path d="M38.9746 30.5113C39.0303 30.5113 39.0867 30.505 39.1428 30.4915C39.5282 30.3988 39.7656 30.0111 39.6733 29.6257C39.5435 29.087 39.3663 28.5558 39.1462 28.0466C38.9888 27.6829 38.566 27.5158 38.2022 27.6731C37.8385 27.8305 37.6714 28.253 37.8288 28.6167C38.016 29.05 38.1671 29.5023 38.2774 29.9614C38.3566 30.2904 38.6504 30.5113 38.9746 30.5113Z" fill="#194964"/>
<path d="M37.2086 26.1808C37.4946 25.9064 37.5039 25.4522 37.2295 25.1662C35.3689 23.2278 32.8691 22.1605 30.1905 22.1605C29.7942 22.1605 29.4727 22.4817 29.4727 22.8783C29.4727 23.2746 29.7942 23.5961 30.1905 23.5961C32.4747 23.5961 34.6067 24.5067 36.194 26.1602C36.3349 26.3072 36.523 26.3808 36.7118 26.3808C36.8904 26.3808 37.0695 26.3146 37.2086 26.1808Z" fill="#194964"/>
</g>
<defs>
<clipPath id="clip0">
<rect width="49" height="49" fill="white"/>
</clipPath>
</defs>
</svg>
