<svg width="49" height="49" viewBox="0 0 49 49" fill="none" xmlns="http://www.w3.org/2000/svg">
<path d="M26.9245 7.21301C26.9063 8.30727 25.8302 9.1941 24.4983 9.1941C23.1698 9.1941 22.0945 8.30727 22.0738 7.21301H22.0591L22.072 7.19226L22.0712 7.18708C22.0712 6.47917 23.8854 3.4963 24.4983 3.50754C25.1128 3.51445 26.9262 6.47917 26.9262 7.18708V7.19226L26.9418 7.21301H26.9245ZM41.7222 26.8752L41.7438 26.8614H41.7507C42.4577 26.8614 45.4224 25.048 45.4294 24.4335C45.438 23.8189 42.4577 22.0064 41.7507 22.0064C41.7472 22.0064 41.7438 22.0072 41.7438 22.0072L41.7222 21.9934V22.0089C40.6296 22.0271 39.7437 23.1049 39.7437 24.4335C39.7437 25.7645 40.6296 26.8415 41.7222 26.8597V26.8752ZM7.27868 21.9943L7.25708 22.0098C7.25621 22.0098 7.25362 22.0098 7.25189 22.0098C6.54485 22.0098 3.5784 23.8224 3.57149 24.4369C3.56198 25.0506 6.54399 26.8657 7.25189 26.8657C7.25362 26.8657 7.25621 26.864 7.25708 26.864L7.27868 26.8761V26.8623C8.37295 26.8424 9.25891 25.7645 9.25891 24.4369C9.25891 23.1058 8.37295 22.0306 7.27868 22.0115V21.9943ZM14.0474 10.5321L14.0241 10.5269C14.0232 10.5243 14.0206 10.5226 14.0197 10.5226C13.5193 10.0221 10.1405 9.20793 9.70059 9.63664C9.25977 10.0654 10.0861 13.4553 10.5857 13.9558C10.5891 13.9575 10.5891 13.9575 10.5917 13.9593L10.5978 13.9817L10.6064 13.9731C11.3947 14.7337 12.7829 14.598 13.7224 13.6585C14.6628 12.7172 14.7968 11.3308 14.0362 10.5442L14.0474 10.5321ZM38.4031 13.9817L38.4082 13.9593C38.4117 13.9584 38.4134 13.9558 38.4152 13.9541C38.913 13.4545 39.729 10.0749 39.2977 9.63492C38.8707 9.19583 35.4807 10.0204 34.9811 10.5209C34.9776 10.5226 34.9776 10.5243 34.9776 10.5278L34.9543 10.533L34.963 10.5416C34.2032 11.3299 34.338 12.7172 35.2784 13.6567C36.2188 14.598 37.6044 14.7311 38.3918 13.9705L38.4031 13.9817ZM41.6288 32.5903C41.6288 32.1123 41.2425 31.726 40.7645 31.726H9.43178C8.95379 31.726 8.56743 32.1123 8.56743 32.5903C8.56743 33.0683 8.95379 33.4547 9.43178 33.4547H40.7645C41.2425 33.4547 41.6288 33.0683 41.6288 32.5903ZM38.8197 36.6035C38.8197 36.1255 38.4333 35.7391 37.9553 35.7391H5.54221C5.06422 35.7391 4.67786 36.1255 4.67786 36.6035C4.67786 37.0815 5.06422 37.4678 5.54221 37.4678H37.9553C38.4333 37.4678 38.8197 37.0806 38.8197 36.6035ZM43.4656 40.6167C43.4656 40.1387 43.0792 39.7523 42.6012 39.7523H17.319C16.841 39.7523 16.4546 40.1387 16.4546 40.6167C16.4546 41.0947 16.841 41.481 17.319 41.481H42.6012C43.0792 41.481 43.4656 41.0947 43.4656 40.6167ZM41.4127 44.6299C41.4127 44.1519 41.0264 43.7655 40.5484 43.7655H15.0501C14.5721 43.7655 14.1857 44.1519 14.1857 44.6299C14.1857 45.1078 14.5721 45.4942 15.0501 45.4942H40.5484C41.0264 45.4942 41.4127 45.1078 41.4127 44.6299ZM24.5009 13.8097C18.6414 13.8097 13.8745 18.5758 13.8745 24.4343C13.8745 25.4499 14.018 26.4482 14.3015 27.4146H34.6985C34.982 26.4491 35.1237 25.4517 35.1237 24.4343C35.1246 18.5758 30.3586 13.8097 24.5009 13.8097V13.8097ZM24.5009 12.081C31.324 12.081 36.8533 17.6111 36.8533 24.4343C36.8533 26.1025 36.5188 27.6912 35.9198 29.1433H13.0802C12.4812 27.6912 12.1458 26.1025 12.1458 24.4343C12.1458 17.6111 17.6785 12.081 24.5009 12.081V12.081Z" fill="#153B51"/>
</svg>
