<svg width="1440" height="117" viewBox="0 0 1440 117" fill="none" xmlns="http://www.w3.org/2000/svg">
<path fill-rule="evenodd" clip-rule="evenodd" d="M315.5 0C296.547 0 280.134 10.8709 272.155 26.7175C266.412 24.3226 260.111 23 253.5 23C235.081 23 219.061 33.2671 210.849 48.3902C201.963 38.3383 188.972 32 174.5 32C164.119 32 154.5 35.2612 146.612 40.815C137.784 28.7992 123.553 21 107.5 21C92.6935 21 79.4368 27.6349 70.5407 38.0938C69.5351 38.0316 68.5212 38 67.5 38C59.6205 38 52.1799 39.879 45.6017 43.2134C36.8714 30.4077 22.1676 22 5.5 22C-4.88065 22 -14.4996 25.2612 -22.3881 30.815C-31.2156 18.7992 -45.447 11 -61.5 11C-80.4525 11 -96.866 21.8709 -104.845 37.7175C-110.588 35.3226 -116.889 34 -123.5 34C-150.286 34 -172 55.7142 -172 82.5C-172 109.286 -150.286 131 -123.5 131C-116.738 131 -110.3 129.616 -104.452 127.116C-84.1586 139.031 -47.2124 147 -5 147C22.0103 147 46.8645 143.737 66.5795 138.266C87.249 149.54 123.16 157 164 157C224.484 157 274.157 140.638 279.52 119.754C300.703 129.625 334.245 136 372 136C407.642 136 439.529 130.319 460.808 121.378C469.584 133.851 484.09 142 500.5 142C507.262 142 513.7 140.616 519.548 138.116C539.841 150.031 576.788 158 619 158C680.838 158 731.375 140.898 734.813 119.345L734.858 119.257C743.351 126.576 754.409 131 766.5 131C773.262 131 779.7 129.616 785.548 127.116C805.841 139.031 842.788 147 885 147C924.009 147 958.521 140.194 979.55 129.759C983.069 130.571 986.734 131 990.5 131C997.262 131 1003.7 129.616 1009.55 127.116C1029.84 139.031 1066.79 147 1109 147C1155.69 147 1195.94 137.249 1214.34 123.193C1218.52 124.37 1222.94 125 1227.5 125C1234.26 125 1240.7 123.616 1246.55 121.116C1266.84 133.031 1303.79 141 1346 141C1407.84 141 1458.37 123.898 1461.81 102.345C1465.13 95.7802 1467 88.3584 1467 80.5C1467 53.7142 1445.29 32 1418.5 32C1410.62 32 1403.18 33.879 1396.6 37.2134C1387.87 24.4077 1373.17 16 1356.5 16C1346.12 16 1336.5 19.2612 1328.61 24.815C1319.78 12.7992 1305.55 5 1289.5 5C1270.55 5 1254.13 15.8709 1246.15 31.7175C1240.41 29.3226 1234.11 28 1227.5 28C1215.24 28 1204.04 32.5493 1195.5 40.0519C1191.07 38.7173 1186.37 38 1181.5 38C1173.62 38 1166.18 39.879 1159.6 43.2134C1150.87 30.4077 1136.17 22 1119.5 22C1109.12 22 1099.5 25.2612 1091.61 30.815C1082.78 18.7992 1068.55 11 1052.5 11C1033.55 11 1017.13 21.8709 1009.15 37.7175C1003.41 35.3226 997.111 34 990.5 34C982.587 34 975.116 35.8953 968.517 39.2567C964.977 38.4346 961.289 38 957.5 38C949.62 38 942.18 39.879 935.602 43.2134C926.871 30.4077 912.168 22 895.5 22C885.119 22 875.5 25.2612 867.612 30.815C858.784 18.7992 844.553 11 828.5 11C809.547 11 793.134 21.8709 785.155 37.7175C779.412 35.3226 773.111 34 766.5 34C747.537 34 731.117 44.8825 723.142 60.7427C714.649 53.4245 703.591 49 691.5 49C683.62 49 676.18 50.879 669.602 54.2134C660.871 41.4077 646.168 33 629.5 33C619.119 33 609.5 36.2612 601.612 41.815C592.784 29.7992 578.553 22 562.5 22C543.547 22 527.134 32.8709 519.155 48.7175C513.412 46.3226 507.111 45 500.5 45C494.818 45 489.364 45.9771 484.297 47.7724C475.532 35.2151 460.975 27 444.5 27C436.62 27 429.18 28.879 422.602 32.2134C413.871 19.4077 399.168 11 382.5 11C372.119 11 362.5 14.2612 354.612 19.815C345.784 7.79915 331.553 0 315.5 0Z" fill="#F8F5F5"/>
<path fill-rule="evenodd" clip-rule="evenodd" d="M461.5 28C442.547 28 426.134 38.8709 418.155 54.7175C412.412 52.3226 406.111 51 399.5 51C381.081 51 365.061 61.267 356.849 76.3902C347.963 66.3383 334.972 60 320.5 60C310.119 60 300.5 63.2612 292.612 68.8151C283.784 56.7991 269.553 49 253.5 49C238.694 49 225.437 55.6349 216.541 66.0938C215.535 66.0316 214.521 66 213.5 66C205.62 66 198.18 67.879 191.602 71.2134C182.871 58.4077 168.168 50 151.5 50C141.119 50 131.5 53.2612 123.612 58.8151C114.784 46.7991 100.553 39 84.5 39C65.5475 39 49.134 49.8709 41.1549 65.7175C35.4123 63.3226 29.1106 62 22.5 62C-4.28581 62 -26 83.7142 -26 110.5C-26 137.286 -4.28581 159 22.5 159C29.2618 159 35.7004 157.616 41.5481 155.116C61.8414 167.031 98.7876 175 141 175C168.01 175 192.865 171.737 212.579 166.266C233.249 177.54 269.16 185 310 185C370.485 185 420.157 168.638 425.52 147.754C446.703 157.625 480.245 164 518 164C553.642 164 585.529 158.318 606.808 149.378C615.584 161.851 630.09 170 646.5 170C653.262 170 659.7 168.616 665.548 166.116C685.841 178.031 722.788 186 765 186C826.838 186 877.375 168.898 880.813 147.345L880.858 147.257C889.351 154.576 900.409 159 912.5 159C919.262 159 925.7 157.616 931.548 155.116C951.841 167.031 988.788 175 1031 175C1070.01 175 1104.52 168.194 1125.55 157.759C1129.07 158.571 1132.73 159 1136.5 159C1143.26 159 1149.7 157.616 1155.55 155.116C1175.84 167.031 1212.79 175 1255 175C1301.69 175 1341.94 165.249 1360.34 151.193C1364.52 152.37 1368.94 153 1373.5 153C1380.26 153 1386.7 151.616 1392.55 149.116C1412.84 161.031 1449.79 169 1492 169C1553.84 169 1604.37 151.898 1607.81 130.345C1611.13 123.78 1613 116.358 1613 108.5C1613 81.7142 1591.29 60 1564.5 60C1556.62 60 1549.18 61.879 1542.6 65.2134C1533.87 52.4077 1519.17 44 1502.5 44C1492.12 44 1482.5 47.2612 1474.61 52.8151C1465.78 40.7991 1451.55 33 1435.5 33C1416.55 33 1400.13 43.8709 1392.15 59.7175C1386.41 57.3226 1380.11 56 1373.5 56C1361.24 56 1350.04 60.5493 1341.5 68.0519C1337.07 66.7173 1332.37 66 1327.5 66C1319.62 66 1312.18 67.879 1305.6 71.2134C1296.87 58.4077 1282.17 50 1265.5 50C1255.12 50 1245.5 53.2612 1237.61 58.8151C1228.78 46.7991 1214.55 39 1198.5 39C1179.55 39 1163.13 49.8709 1155.15 65.7175C1149.41 63.3226 1143.11 62 1136.5 62C1128.59 62 1121.12 63.8953 1114.52 67.2567C1110.98 66.4346 1107.29 66 1103.5 66C1095.62 66 1088.18 67.879 1081.6 71.2134C1072.87 58.4077 1058.17 50 1041.5 50C1031.12 50 1021.5 53.2612 1013.61 58.8151C1004.78 46.7991 990.553 39 974.5 39C955.547 39 939.134 49.8709 931.155 65.7175C925.412 63.3226 919.111 62 912.5 62C893.537 62 877.117 72.8825 869.142 88.7427C860.649 81.4245 849.591 77 837.5 77C829.62 77 822.18 78.879 815.602 82.2134C806.871 69.4077 792.168 61 775.5 61C765.119 61 755.5 64.2612 747.612 69.8151C738.784 57.7991 724.553 50 708.5 50C689.547 50 673.134 60.8709 665.155 76.7175C659.412 74.3226 653.111 73 646.5 73C640.818 73 635.364 73.9771 630.297 75.7724C621.532 63.215 606.975 55 590.5 55C582.62 55 575.18 56.879 568.602 60.2134C559.871 47.4077 545.168 39 528.5 39C518.119 39 508.5 42.2612 500.612 47.8151C491.784 35.7991 477.553 28 461.5 28Z" fill="#194964"/>
<path fill-rule="evenodd" clip-rule="evenodd" d="M461.5 39C442.547 39 426.134 49.8709 418.155 65.7175C412.412 63.3226 406.111 62 399.5 62C381.081 62 365.061 72.2671 356.849 87.3902C347.963 77.3383 334.972 71 320.5 71C310.119 71 300.5 74.2612 292.612 79.815C283.784 67.7992 269.553 60 253.5 60C238.694 60 225.437 66.6349 216.541 77.0938C215.535 77.0316 214.521 77 213.5 77C205.62 77 198.18 78.879 191.602 82.2134C182.871 69.4077 168.168 61 151.5 61C141.119 61 131.5 64.2612 123.612 69.815C114.784 57.7992 100.553 50 84.5 50C65.5475 50 49.134 60.8709 41.1549 76.7175C35.4123 74.3226 29.1106 73 22.5 73C-4.28581 73 -26 94.7142 -26 121.5C-26 148.286 -4.28581 170 22.5 170C29.2618 170 35.7004 168.616 41.5481 166.116C61.8414 178.031 98.7876 186 141 186C168.01 186 192.865 182.737 212.579 177.266C233.249 188.54 269.16 196 310 196C370.484 196 420.157 179.638 425.52 158.754C446.703 168.625 480.245 175 518 175C553.642 175 585.529 169.319 606.808 160.378C615.584 172.851 630.09 181 646.5 181C653.262 181 659.7 179.616 665.548 177.116C685.841 189.031 722.788 197 765 197C826.838 197 877.375 179.898 880.813 158.345L880.858 158.257C889.351 165.576 900.409 170 912.5 170C919.262 170 925.7 168.616 931.548 166.116C951.841 178.031 988.788 186 1031 186C1070.01 186 1104.52 179.194 1125.55 168.759C1129.07 169.571 1132.73 170 1136.5 170C1143.26 170 1149.7 168.616 1155.55 166.116C1175.84 178.031 1212.79 186 1255 186C1301.69 186 1341.94 176.249 1360.34 162.193C1364.52 163.37 1368.94 164 1373.5 164C1380.26 164 1386.7 162.616 1392.55 160.116C1412.84 172.031 1449.79 180 1492 180C1553.84 180 1604.37 162.898 1607.81 141.345C1611.13 134.78 1613 127.358 1613 119.5C1613 92.7142 1591.29 71 1564.5 71C1556.62 71 1549.18 72.879 1542.6 76.2134C1533.87 63.4077 1519.17 55 1502.5 55C1492.12 55 1482.5 58.2612 1474.61 63.815C1465.78 51.7992 1451.55 44 1435.5 44C1416.55 44 1400.13 54.8709 1392.15 70.7175C1386.41 68.3226 1380.11 67 1373.5 67C1361.24 67 1350.04 71.5493 1341.5 79.0519C1337.07 77.7173 1332.37 77 1327.5 77C1319.62 77 1312.18 78.879 1305.6 82.2134C1296.87 69.4077 1282.17 61 1265.5 61C1255.12 61 1245.5 64.2612 1237.61 69.815C1228.78 57.7992 1214.55 50 1198.5 50C1179.55 50 1163.13 60.8709 1155.15 76.7175C1149.41 74.3226 1143.11 73 1136.5 73C1128.59 73 1121.12 74.8953 1114.52 78.2567C1110.98 77.4346 1107.29 77 1103.5 77C1095.62 77 1088.18 78.879 1081.6 82.2134C1072.87 69.4077 1058.17 61 1041.5 61C1031.12 61 1021.5 64.2612 1013.61 69.815C1004.78 57.7992 990.553 50 974.5 50C955.547 50 939.134 60.8709 931.155 76.7175C925.412 74.3226 919.111 73 912.5 73C893.537 73 877.117 83.8825 869.142 99.7427C860.649 92.4245 849.591 88 837.5 88C829.62 88 822.18 89.879 815.602 93.2134C806.871 80.4077 792.168 72 775.5 72C765.119 72 755.5 75.2612 747.612 80.815C738.784 68.7992 724.553 61 708.5 61C689.547 61 673.134 71.8709 665.155 87.7175C659.412 85.3226 653.111 84 646.5 84C640.818 84 635.364 84.9771 630.297 86.7724C621.532 74.2151 606.975 66 590.5 66C582.62 66 575.18 67.879 568.602 71.2134C559.871 58.4077 545.168 50 528.5 50C518.119 50 508.5 53.2612 500.612 58.815C491.784 46.7992 477.553 39 461.5 39Z" fill="#153B51"/>
</svg>
